<svg xmlns="http://www.w3.org/2000/svg" class="animated" version="1.1" viewBox="0 0 500 500"><g class="animable animator-hidden" style="transform-origin:249.86px 362.36px"><ellipse cx="249.86" cy="362.36" fill="#f5f5f5" class="animable" rx="224.23" ry="124.15" style="transform-origin:249.86px 362.36px"/></g><g fill="#e6e6e6" class="animable animator-hidden" style="transform-origin:269.298px 346.273px"><path d="m451.69 343.15-125 72.2a3.69 3.69 0 0 1-3.36 0l-180.22-104a1 1 0 0 1 0-1.94l125-72.2a3.69 3.69 0 0 1 3.36 0l180.22 104a1 1 0 0 1 0 1.94z" class="animable" style="transform-origin:297.4px 326.28px"/><ellipse cx="161.23" cy="412.39" class="animable" rx="75.08" ry="43.35" style="transform-origin:161.23px 412.39px"/><ellipse cx="252.65" cy="362.13" class="animable" rx="59.1" ry="34.12" style="transform-origin:252.65px 362.13px"/><ellipse cx="384.09" cy="407.87" class="animable" rx="37.1" ry="21.42" style="transform-origin:384.09px 407.87px"/></g><g class="animable animator-active" style="transform-origin:308.085px 218.959px"><g class="animable" style="transform-origin:308.085px 218.959px"><g class="animable" style="transform-origin:304.4px 264.226px"><path fill="#37474f" d="m329.42 286.36v111a2.48 2.48 0 0 1-1.12 1.94l-2.38 1.37a2.46 2.46 0 0 1-2.24 0l-2.38-1.37a2.48 2.48 0 0 1-1.12-1.94v-111c0-0.71 0.5-1 1.12-0.64l2.38 1.37a2.46 2.46 0 0 0 2.24 0l2.38-1.37c0.62-0.36 1.12-0.07 1.12 0.64z" class="animable" style="transform-origin:324.8px 343.252px"/><path fill="#455a64" d="m323.68 400.62-2.38-1.37a2.48 2.48 0 0 1-1.12-1.94v-110.95c0-0.71 0.5-1 1.12-0.64l2.38 1.37a2.48 2.48 0 0 1 1.12 1.91v111c0 0.69-0.5 1-1.12 0.62z" class="animable" style="transform-origin:322.49px 343.175px"/><path fill="#37474f" d="m430.93 227.72v110.94a2.45 2.45 0 0 1-1.12 1.94l-2.38 1.4a2.52 2.52 0 0 1-2.24 0l-2.38-1.38a2.48 2.48 0 0 1-1.12-1.94v-110.96c0-0.71 0.51-1 1.12-0.65l2.38 1.38a2.46 2.46 0 0 0 2.24 0l2.38-1.38c0.62-0.35 1.12-0.07 1.12 0.65z" class="animable" style="transform-origin:426.31px 284.591px"/><path fill="#455a64" d="m425.19 342-2.38-1.38a2.48 2.48 0 0 1-1.12-1.94v-110.96c0-0.71 0.51-1 1.12-0.65l2.38 1.38a2.47 2.47 0 0 1 1.12 1.94v110.94c0 0.67-0.5 1-1.12 0.67z" class="animable" style="transform-origin:424px 284.525px"/><path fill="#37474f" d="m192.71 207.47v111a2.48 2.48 0 0 1-1.12 1.94l-2.38 1.37a2.46 2.46 0 0 1-2.24 0l-2.38-1.37a2.48 2.48 0 0 1-1.12-1.94v-111c0-0.71 0.5-1 1.12-0.64l2.41 1.37a2.46 2.46 0 0 0 2.24 0l2.38-1.37c0.59-0.36 1.09-0.07 1.09 0.64z" class="animable" style="transform-origin:188.09px 264.362px"/><path fill="#455a64" d="m187 321.73-2.38-1.37a2.48 2.48 0 0 1-1.12-1.94v-111c0-0.71 0.5-1 1.12-0.64l2.38 1.42a2.48 2.48 0 0 1 1.12 1.94v110.94c-0.03 0.72-0.53 1.01-1.12 0.65z" class="animable" style="transform-origin:185.81px 264.255px"/><path fill="#38a169" d="M453,235.61v-.81a4.49,4.49,0,0,0-2-3.53L272,128a4.51,4.51,0,0,0-4.08,0l-110.12,63.6a4.49,4.49,0,0,0-2,3.53V196a4.49,4.49,0,0,0,2,3.53l179,103.26a4.58,4.58,0,0,0,4.08,0L451,239.14A4.49,4.49,0,0,0,453,235.61Z" class="animable" style="transform-origin:304.4px 215.391px"/><path d="M453,235.61v-.81a4.49,4.49,0,0,0-2-3.53L272,128a4.51,4.51,0,0,0-4.08,0l-110.12,63.6a4.49,4.49,0,0,0-2,3.53V196a4.49,4.49,0,0,0,2,3.53l179,103.26a4.58,4.58,0,0,0,4.08,0L451,239.14A4.49,4.49,0,0,0,453,235.61Z" class="animable" opacity=".6" style="transform-origin:304.4px 215.391px"/><path fill="#38a169" d="M338.82,297.72v5.52a4.24,4.24,0,0,0,2-.49L451,239.15a4.51,4.51,0,0,0,2-3.53v-.82a4.53,4.53,0,0,0-1.66-3.26c.73.63.61,1.5-.38,2.09l-110.12,63.6A4.13,4.13,0,0,1,338.82,297.72Z" class="animable" style="transform-origin:395.91px 267.39px"/><path d="M338.82,297.72v5.52a4.24,4.24,0,0,0,2-.49L451,239.15a4.51,4.51,0,0,0,2-3.53v-.82a4.53,4.53,0,0,0-1.66-3.26c.73.63.61,1.5-.38,2.09l-110.12,63.6A4.13,4.13,0,0,1,338.82,297.72Z" class="animable" opacity=".5" style="transform-origin:395.91px 267.39px"/><path fill="#38a169" d="M451,233.62,340.86,297.23a4.51,4.51,0,0,1-4.08,0L157.77,194a1.24,1.24,0,0,1,0-2.35L267.89,128a4.51,4.51,0,0,1,4.08,0L451,231.27A1.24,1.24,0,0,1,451,233.62Z" class="animable" style="transform-origin:304.385px 212.615px"/><path d="M451,233.62,340.86,297.23a4.51,4.51,0,0,1-4.08,0L157.77,194a1.24,1.24,0,0,1,0-2.35L267.89,128a4.51,4.51,0,0,1,4.08,0L451,231.27A1.24,1.24,0,0,1,451,233.62Z" class="animable" opacity=".4" style="transform-origin:304.385px 212.615px"/></g><g class="animable" style="transform-origin:272.24px 215.438px"><path d="m325.29 232.24-26.09 15.1a3.25 3.25 0 0 1-2.93 0l-77.08-44.44a0.89 0.89 0 0 1 0-1.69l26.09-15.11a3.26 3.26 0 0 1 2.92 0l77.09 44.45a0.89 0.89 0 0 1 0 1.69z" class="animable" opacity=".15" style="transform-origin:272.24px 216.722px"/><g class="animable" style="transform-origin:272.495px 214.37px"><path fill="#263238" d="M220.77,198.53a1,1,0,0,1,.61-.84l24.51-14.15a3.2,3.2,0,0,1,2.92,0l74.8,43.25a1,1,0,0,1,.6.85v2.57a1,1,0,0,1-.6.84l-24.5,14.15a3.22,3.22,0,0,1-2.93,0L221.38,202a1,1,0,0,1-.61-.84Z" class="animable" style="transform-origin:272.49px 214.37px"/><path fill="#37474f" d="M299.11,242.57l24.5-14.09a.89.89,0,0,0,0-1.69l-74.8-43.25a3.2,3.2,0,0,0-2.92,0l-24.51,14.15a.89.89,0,0,0,0,1.69l74.8,43.18A3.25,3.25,0,0,0,299.11,242.57Z" class="animable" style="transform-origin:272.495px 213.051px"/><path fill="#263238" d="M297.74,242.91v2.63a2.92,2.92,0,0,0,1.37-.34l24.49-14.14a1,1,0,0,0,.61-.85v-2.58a1,1,0,0,1-.61.85l-24.49,14.09A3,3,0,0,1,297.74,242.91Z" class="animable" style="transform-origin:310.975px 236.585px"/><path fill="#38a169" d="m225.31 198.72s0 0 0 0l2.42-1.4 3.29 1.9-2.44 1.45-3.29-1.9zm3.8-2.19 2.43-1.4 2.59 1.49-2.44 1.38-2.58-1.49zm0.8 4.85 2.43-1.4 2.58 1.49-2.44 1.45-2.58-1.49zm3-7s0 0 0 0l2.43-1.4 4.17 2.42-2.44 1.44-4.17-2.41zm0.09 4.44s0 0 0 0l2.42-1.41 2.06 1.19-2.43 1.4-2.05-1.21zm0.8 4.84 2.42-1.4 2.59 1.49-2.45 1.45-2.58-1.49zm2.56-2.9 2.42-1.4 2 1.19-2.44 1.45-2-1.19zm0.34-8.58 2.43-1.4 3.29 1.9-2.42 1.38-3.29-1.9zm1 13.73s0 0 0 0l2.42-1.4 18.68 10.78-2.44 1.45-18.68-10.78zm0.7-8.37s0 0 0 0l2.42-1.4 2 1.19-2.44 1.44-2.05-1.18zm1.33 5.16 2.42-1.4 2.05 1.19-2.44 1.45-2.05-1.19zm0.77-12.7s0 0 0 0l2.42-1.4 2.06 1.19-2.44 1.44-2.03-1.23zm0.8 4.85s0 0 0 0l2.42-1.4 2.06 1.18-2.42 1.37-2.06-1.18zm0.45 4.64s0 0 0 0l2.42-1.4 2.05 1.19-2.44 1.44-2.05-1.18zm1.33 5.16 2.42-1.4 2 1.19-2.44 1.45-2-1.19zm0.78-12.71s0 0 0 0l2.42-1.4 2.06 1.19-2.44 1.44-2-1.18zm0.8 4.85s0 0 0 0l2.42-1.4 2.06 1.18-2.44 1.45-2.05-1.18zm0.45 4.64 2.42-1.4 2 1.19-2.44 1.44-2-1.18zm0-14.09s0 0 0 0l2.42-1.4 2.59 1.49-2.45 1.45-2.58-1.49zm1.33 19.25 2.42-1.4 2.05 1.19-2.44 1.45-2.05-1.19zm0.78-12.71s0 0 0 0l2.42-1.4 2.06 1.19-2.42 1.33-2.05-1.18zm0.8 4.85s0 0 0 0l2.42-1.4 2.06 1.18-2.44 1.45-2.06-1.26zm0.45 4.64s0 0 0 0l2.42-1.4 2.05 1.19-2.44 1.44-2.05-1.18zm1.33 5.16 2.42-1.4 2 1.19-2.44 1.45-2-1.19zm0.66-18.1s0 0 0 0l2.43-1.4 2.05 1.18-2.44 1.45-2.05-1.18zm0.12 5.39s0 0 0 0l2.42-1.4 2.06 1.19-2.43 1.39-2-1.18zm0.8 4.85s0 0 0 0l2.42-1.4 2.06 1.18-2.44 1.45-2.05-1.18zm0.45 4.64s0 0 0 0l2.42-1.4 2 1.19-2.44 1.44-2-1.18zm1.33 5.16s0 0 0 0l2.44-1.47 2 1.19-2.44 1.45-2.05-1.19zm0.66-18.1s0 0 0 0l2.42-1.4 2.06 1.18-2.44 1.45-2-1.18zm0.12 5.39s0 0 0 0l2.42-1.4 2.06 1.19-2.42 1.36-2-1.18zm0.8 4.85s0 0 0 0l2.42-1.4 2.06 1.18-2.44 1.45-2.05-1.18zm0.45 4.64 2.43-1.4 2.05 1.19-2.44 1.44-2.05-1.18zm1.33 5.16s0 0 0 0l2.42-1.41 2.05 1.19-2.44 1.45-2.05-1.19zm0.66-18.1s0 0 0 0l2.43-1.4 2.05 1.18-2.44 1.45-2.05-1.18zm0.12 5.39s0 0 0 0l2.43-1.4 2.05 1.19-2.45 1.44-2-1.18zm0.37 17.76 2.43-1.4 2.58 1.49-2.44 1.45-2.58-1.49zm0.43-12.91s0 0 0 0l2.42-1.4 2.06 1.18-2.44 1.45-2.05-1.18zm0.45 4.64 2.43-1.4 2.02 1.11-2.44 1.44-2.05-1.18zm1.33 5.16 2.42-1.4 2.06 1.19-2.45 1.45-2.05-1.19zm0.66-18.1s0 0 0 0l2.43-1.4 2.03 1.15-2.44 1.45-2.05-1.18zm0.12 5.39s0 0 0 0l2.43-1.4 2.05 1.19-2.44 1.44-2.05-1.18zm0.8 4.85s0 0 0 0l2.43-1.4 2 1.18-2.44 1.45-2-1.18zm0.1 13.21s0 0 0 0l2.43-1.4 2.58 1.49-2.44 1.45-2.58-1.49zm0.35-8.57s0 0 0 0l2.42-1.4 2 1.19-2.33 1.36-2-1.18zm1.33 5.16 2.42-1.4 2.06 1.19-2.45 1.45-2.05-1.19zm0.78-12.71s0 0 0 0l2.43-1.4 2 1.19-2.44 1.44-2.01-1.26zm0.8 4.85s0 0 0 0l2.43-1.4 2.05 1.18-2.44 1.45-2.05-1.18zm0.45 4.64s0 0 0 0l2.42-1.4 2.05 1.19-2.44 1.44-2.03-1.3zm0.1-14s0 0 0 0l2.43-1.4 2.05 1.19-2.44 1.45-2.04-1.31zm0.08 22.91 2.43-1.4 2.58 1.49-2.46 1.34-2.58-1.49zm1.15-3.72s0 0 0 0l2.42-1.41 2.06 1.19-2.45 1.45-2-1.19zm0.78-12.71 2.42-1.4 2.06 1.19-2.44 1.44-2.05-1.18zm0.8 4.85s0 0 0 0l2.43-1.4 2.05 1.18-2.44 1.45-2.05-1.18zm0.45 4.64s0 0 0 0l2.42-1.4 2.06 1.19-2.45 1.44-2.03-1.27zm0.1-14s0 0 0 0l2.43-1.4 2.05 1.19-2.44 1.45-2-1.19zm0.62 23.22 2.43-1.41 3.29 1.9-2.44 1.45-3.29-1.9zm0.61-4s0 0 0 0l2.42-1.41 6.48 3.74-2.44 1.45-6.42-3.91zm0.78-12.71s0 0 0 0l2.43-1.4 2.05 1.19-2.44 1.44-2.05-1.18zm0.8 4.85s0 0 0 0l2.43-1.4 2.03 1-2.44 1.45-2.05-1.18zm0.45 4.64s0 0 0 0l2.42-1.4 2.06 1.19-2.47 1.27-2-1.18zm0.1-14s0 0 0 0l2.43-1.4 2.05 1.19-2.44 1.45-2.05-1.19zm2 6.48s0 0 0 0l2.43-1.4 2.05 1.19-2.44 1.44-2.05-1.18zm0.55 17.86s0 0 0 0l2.42-1.4 2.06 1.18-2.45 1.45-2-1.18zm0.25-13s0 0 0 0l2.43-1.4 2 1.18-2.32 1.24-2-1.18zm0.45 4.64 2.42-1.4 1.88 1.08a1.2 1.2 0 0 0 0.59 0.13 1.33 1.33 0 0 0 0.62-0.13l3.19-1.84 2.4 1.39-6.23 3.64-4.89-2.82zm0.1-14s0 0 0 0l2.43-1.4 2.05 1.19-2.42 1.19-2.05-1.19zm2 6.48s0 0 0 0l2.42-1.4 2.06 1.19-2.44 1.44-2-1.18zm0.55 17.86s0 0 0 0l2.42-1.4 2.06 1.18-2.45 1.45-2-1.18zm0.25-13s0 0 0 0l2.43-1.4 2.05 1.18-2.44 1.45-2.05-1.18zm2-8.55s0 0 0 0l2.42-1.4 2.06 1.18-2.45 1.45-2.05-1.18zm0.55 5.64s0 0 0 0l2.42-1.4 2.06 1.19-2.44 1.44-2.05-1.18zm0.55 17.86s0 0 0 0l2.43-1.4 2.05 1.18-2.45 1.45-2-1.18zm0.44-4.13 2.42-1.4 2.06 1.19-2.45 1.45-2-1.42zm1.82-17.43s0 0 0 0l2.42-1.4 2.05 1.18-2.44 1.45-2.05-1.18zm0.55 5.64s0 0 0 0l2.43-1.4 3.64 2.1-2.44 1.45-3.64-2.1zm1.26 18.27s0 0 0 0l2.42-1.4 5.42 3.12-2.45 1.45-5.41-3.12zm0.6-12.81 2.43-1.4 2.05 1.19-2.44 1.44-2.05-1.18zm0.95-9.16s0 0 0 0l2.42-1.4 2.05 1.18-2.43 1.2-2-1.18zm2.25 19.78s0 0 0 0l2.43-1.4 2.05 1.19-2.44 1.45-2.05-1.19zm0.16-8.68 2.43-1.4 2 1.19-2.44 1.44-2-1.18zm0.44-4.13s0 0 0 0l2.43-1.4 2 1.18-2.44 1.45-2-1.18zm0.51-5s0 0 0 0l2.42-1.4 2 1.18-2.44 1.45-2-1.18zm1.81 23.91s0 0 0 0l2.42-1.4 2.06 1.18-2.45 1.45-2-1.18zm0.44-4.13s0 0 0 0l2.43-1.4 2 1.19-2.44 1.45-2-1.19zm0.16-8.68 2.43-1.4 2.05 1.19-2.44 1.44-2.05-1.18zm0.28 4.54 2.43-1.4 2 1.19-2.44 1.44-2-1.18zm0.16-8.67s0 0 0 0l2.43-1.4 2.05 1.18-2.44 1.45-2.05-1.18zm1.25-4.6s0 0 0 0l2.42-1.4 2.06 1.18-2.39 1.19-2.05-1.18zm1.07 23.48s0 0 0 0l6.22-3.6 2.05 1.19-6.23 3.64-2.06-1.18zm0.44-4.13s0 0 0 0l2.43-1.4 2.05 1.19-2.41 1.16-2-1.19zm0.44-4.14 2.43-1.4 2.05 1.19-2.44 1.44-2.01-1.47zm0.16-8.67s0 0 0 0l2.43-1.4 2.05 1.18-2.44 1.45-2.05-1.18zm0.27 4.54s0 0 0 0l2.43-1.4 2.05 1.18-2.44 1.45-2.05-1.18zm1-9.14s0 0 0 0l2.42-1.4 2.06 1.18-2.44 1.45-2.05-1.18zm1.95 15.21 2.43-1.4 2.05 1.19-2.44 1.45-2.03-1.42zm0.43-4.13s0 0 0 0l2.43-1.4 2.05 1.18-2.41 1.17-2.05-1.18zm0.44-4.13s0 0 0 0l2.42-1.4 2.06 1.18-2.45 1.45-2-1.18zm0.54-5s0 0 0 0l2.42-1.4 2.06 1.18-2.44 1.45-2.05-1.18zm1.95 15.21 6.23-3.59 2.05 1.18-6.24 3.65-2.05-1.19zm0.43-4.13s0 0 0 0l2.43-1.4 2.05 1.18-2.44 1.45-2.05-1.18zm0.44-4.13s0 0 0 0l2.42-1.4 2.06 1.18-2.46 1.16-2-1.18zm2.23-5.17 1-0.61 2.06 1.19-1.06 0.65-2-1.18zm1.13 7.11s0 0 0 0l2.42-1.4 2.06 1.18-2.45 1.45-2-1.18zm2.23-5.17s0 0 0 0l1-0.61 2.06 1.19-1.06 0.65-2-1.18zm1.13 7.11s0 0 0 0l2.42-1.4 2.06 1.18-2.45 1.45-2-1.18zm2.23-5.17s0 0 0 0l1-0.61 2.06 1.19-1.06 0.65-2-1.18zm3.35 1.94s0 0 0 0l1-0.61 2.06 1.19-1.06 0.65-2-1.18z" class="animable" style="transform-origin:272.315px 213.34px"/></g></g><g class="animable" style="transform-origin:339.675px 145.365px"><polygon points="385.58 235.17 408.53 221.92 293.77 155.66 270.82 168.91" class="animable" opacity=".15" style="transform-origin:339.675px 195.415px"/><g class="animable" style="transform-origin:333.955px 140.123px"><path fill="#e6e6e6" d="m320.59 213.6-16.38-9.48c-1.69-1-2.54-2.25-2.54-3.53v-2.28l15.42-8.75a3.62 3.62 0 0 0 1.63-2.83v-20.2l28.62 16.54v20.2a3.62 3.62 0 0 1-1.63 2.83l-12.88 7.5a13.54 13.54 0 0 1-12.24 0z" class="animable" style="transform-origin:324.505px 190.796px"/><path fill="#e0e0e0" d="M340.47,206.85v2.27l5.24-3a3.6,3.6,0,0,0,1.63-2.83v-20.2l-5.45-3.15c-.11,1.39-.24,2.82-.35,4.21l3.82,2.22v15.78a3.57,3.57,0,0,1-1.63,2.83Z" class="animable" style="transform-origin:343.905px 194.53px"/><path fill="#f5f5f5" d="m345.36 202.13a3.6 3.6 0 0 1-1.63 2.83l-10.9 6.36a13.54 13.54 0 0 1-12.24 0l-16.39-9.48c-3.38-1.94-3.38-5.11 0-7.06l10.91-6.36a3.6 3.6 0 0 0 1.63-2.82v-15.79l28.62 16.54z" class="animable" style="transform-origin:323.513px 191.296px"/><path fill="#ebebeb" d="m311.79 190.34 3.32-1.92a3.6 3.6 0 0 0 1.63-2.82v-15.79l28.62 16.54v15.78a3.6 3.6 0 0 1-1.63 2.83l-3.26 1.89z" class="animable" style="transform-origin:328.575px 188.33px"/><path fill="#ebebeb" d="m301.67 198.31v2.28c0 1.28 0.85 2.55 2.53 3.53l16.39 9.47a12.32 12.32 0 0 0 5.84 1.45v-2.27a12.32 12.32 0 0 1-5.84-1.45l-16.39-9.48c-1.68-0.97-2.53-2.25-2.53-3.53z" class="animable" style="transform-origin:314.05px 206.675px"/><path fill="#455a64" d="M391.32,223.93a4.37,4.37,0,0,1-3.95-.07L276.68,160a4.49,4.49,0,0,1-2-3.53V59.54a3.83,3.83,0,0,1,5.87-3.39l110.68,63.91a4.49,4.49,0,0,1,2,3.53v96.88A4.36,4.36,0,0,1,391.32,223.93Z" class="animable" style="transform-origin:333.954px 139.964px"/><path fill="#37474f" d="m387.37 223.85-110.69-63.85a4.49 4.49 0 0 1-2-3.53v-96.94c0-1.3 0.91-1.82 2-1.17l110.69 63.9a4.52 4.52 0 0 1 2 3.53v96.89c0.04 1.32-0.88 1.82-2 1.17z" class="animable" style="transform-origin:332.026px 141.107px"/><path fill="#e0e0e0" d="m387.67 224.26a3.81 3.81 0 0 0 5.56-3.54v-10.9l-3.82 2.18v10.9c0 1.22-0.75 1.75-1.74 1.36z" class="animable" style="transform-origin:390.452px 217.254px"/><path fill="#fff" d="M389.41,212v10.9c0,1.3-.92,1.83-2,1.18L276.68,160.2a4.49,4.49,0,0,1-2-3.53v-10.9Z" class="animable" style="transform-origin:332.045px 185.064px"/><path fill="#38a169" d="m385.58 203.74v-76.68a2.72 2.72 0 0 0-1.22-2.12l-104.67-60.42c-0.67-0.39-1.22-0.08-1.22 0.7v76.68a2.69 2.69 0 0 0 1.22 2.12l104.67 60.43c0.64 0.39 1.22 0.07 1.22-0.71z" class="animable" style="transform-origin:332.025px 134.484px"/><path fill="#fff" d="m385.58 203.74v-76.68a2.72 2.72 0 0 0-1.22-2.12l-104.67-60.42c-0.67-0.39-1.22-0.08-1.22 0.7v76.68a2.69 2.69 0 0 0 1.22 2.12l104.67 60.43c0.64 0.39 1.22 0.07 1.22-0.71z" class="animable" opacity=".5" style="transform-origin:332.025px 134.484px"/><path fill="#455a64" d="m332 183.07a4.24 4.24 0 0 1 1.91 3.31c0 1.22-0.86 1.72-1.91 1.11a4.24 4.24 0 0 1-1.92-3.32c0.03-1.17 0.92-1.71 1.92-1.1z" class="animable" style="transform-origin:331.995px 185.283px"/><path fill="#263238" d="M388.81,123.78a4.4,4.4,0,0,1,.6,2V212l3.82-2.21V123.59a4.2,4.2,0,0,0-.6-2Z" class="animable" style="transform-origin:391.02px 166.795px"/></g></g><g class="animable" style="transform-origin:360.53px 124.413px"><g class="animable" style="transform-origin:360.53px 124.413px"><path fill="#455a64" d="m292.75 39.53a1.13 1.13 0 0 1 0-0.18 0.84 0.84 0 0 1 0-0.17 0.8 0.8 0 0 1 0.11-0.25 0.33 0.33 0 0 1 0.06-0.1l0.06-0.07a0.8 0.8 0 0 1 0.13-0.13 1 1 0 0 1 0.17-0.1 1.43 1.43 0 0 1 1.31 0.17l129.18 74.54a4.35 4.35 0 0 1 1.95 3.39v93.92a1.33 1.33 0 0 1-0.7 1.17l-0.09 0.06-0.1 0.06h-0.17a1 1 0 0 1-0.25 0 1.29 1.29 0 0 1-0.64-0.19h-0.05l-1.72-1.05-127.31-73.48a4.32 4.32 0 0 1-1.95-3.38v-94c0-0.05 0.01-0.13 0.01-0.21z" class="animable" style="transform-origin:359.23px 125.145px"/><path fill="#38a169" d="m293.38 38.48a1.43 1.43 0 0 1 1.31 0.17l129.18 74.54a4.35 4.35 0 0 1 1.95 3.39v6.42l2.49-1.46v-6.33a4.32 4.32 0 0 0-1.95-3.38l-129.18-74.59a1.36 1.36 0 0 0-1.41-0.12c-0.35 0.22-1.97 1.14-2.39 1.36z" class="animable" style="transform-origin:360.845px 79.9886px"/><path fill="#38a169" d="M292.74,39.76c0-1.23.88-1.73,1.95-1.11L423.87,113.2a4.29,4.29,0,0,1,1.95,3.38V123L292.74,46.17Z" class="animable" style="transform-origin:359.28px 80.6918px"/><g class="animable" opacity=".5" style="transform-origin:360.555px 75.8088px"><path fill="#fff" d="M294.69,38.65,423.87,113.2a4,4,0,0,1,1.37,1.44l2.48-1.43a3.91,3.91,0,0,0-1.36-1.43L297.19,37.24a1.38,1.38,0,0,0-1.42-.12c-.35.22-2,1.14-2.38,1.36A1.38,1.38,0,0,1,294.69,38.65Z" class="animable" style="transform-origin:360.555px 75.8088px"/></g><path d="M428.32,121.5v-6.34a4,4,0,0,0-.59-2l-2.49,1.43a3.84,3.84,0,0,1,.59,1.94V123Z" class="animable" opacity=".15" style="transform-origin:426.78px 118.08px"/><path fill="#455a64" d="m421.42 114.54a2.91 2.91 0 0 1 1.1 2.34c0 0.93-0.49 1.41-1.1 1.06a2.91 2.91 0 0 1-1.1-2.34c0-0.93 0.49-1.41 1.1-1.06z" class="animable" style="transform-origin:421.42px 116.24px"/><path fill="#455a64" d="m417.45 112.25a2.89 2.89 0 0 1 1.1 2.33c0 0.94-0.49 1.41-1.1 1.06a2.89 2.89 0 0 1-1.1-2.33c0-0.94 0.49-1.41 1.1-1.06z" class="animable" style="transform-origin:417.45px 113.945px"/><path fill="#455a64" d="m413.48 110a2.91 2.91 0 0 1 1.1 2.34c0 0.93-0.49 1.41-1.1 1.06a2.92 2.92 0 0 1-1.1-2.34c0-0.99 0.49-1.46 1.1-1.06z" class="animable" style="transform-origin:413.48px 111.686px"/><path fill="#263238" d="M425.12,211.69l.1-.06,2.06-1.19a2.06,2.06,0,0,0,1-1.51,2.64,2.64,0,0,0,0-.28V121.49l-2.5,1.47v87.55a1.29,1.29,0,0,1-.61,1.11l-.06,0h0Z" class="animable" opacity=".9" style="transform-origin:426.697px 166.59px"/></g><g class="animable" style="transform-origin:356.68px 124.669px"><path fill="#38a169" d="m332.31 79.44 27.23 15.69a1.48 1.48 0 0 1 0.7 1.15c0 0.42-0.31 0.58-0.7 0.35l-27.23-15.69a1.49 1.49 0 0 1-0.69-1.15c0-0.42 0.31-0.57 0.69-0.35z" class="animable" style="transform-origin:345.93px 88.0372px"/><path fill="#e6e6e6" d="M342.72,109.48,353,115.42a1.48,1.48,0,0,1,.69,1.15c0,.41-.31.57-.69.35L342.72,111a1.46,1.46,0,0,1-.7-1.15C342,109.42,342.33,109.26,342.72,109.48Z" class="animable" style="transform-origin:347.855px 113.2px"/><path fill="#e6e6e6" d="M342.72,115.49,353,121.42a1.51,1.51,0,0,1,.69,1.16c0,.41-.31.57-.69.35L342.72,117a1.48,1.48,0,0,1-.7-1.15C342,115.42,342.33,115.27,342.72,115.49Z" class="animable" style="transform-origin:347.855px 119.209px"/><path fill="#38a169" d="m362.23 96.68 54.53 31.4a1.51 1.51 0 0 1 0.69 1.16c0 0.41-0.31 0.57-0.69 0.35l-54.53-31.4a1.51 1.51 0 0 1-0.69-1.16c0-0.41 0.31-0.57 0.69-0.35z" class="animable" style="transform-origin:389.495px 113.135px"/><path fill="#38a169" d="m342.94 151.61 16.6 9.61a1.46 1.46 0 0 1 0.7 1.15c0 0.41-0.31 0.57-0.7 0.35l-16.6-9.61a1.48 1.48 0 0 1-0.69-1.15c0-0.41 0.31-0.57 0.69-0.35z" class="animable" style="transform-origin:351.245px 157.165px"/><path fill="#38a169" d="m362.23 162.77 54.53 31.44a1.49 1.49 0 0 1 0.69 1.15c0 0.42-0.31 0.57-0.69 0.35l-54.53-31.44a1.49 1.49 0 0 1-0.69-1.15c0-0.42 0.31-0.57 0.69-0.35z" class="animable" style="transform-origin:389.495px 179.24px"/><path fill="#38a169" d="M332.31,85.46,346,93.34a1.49,1.49,0,0,1,.69,1.15c0,.42-.31.58-.69.35L332.31,87a1.48,1.48,0,0,1-.69-1.15C331.62,85.4,331.93,85.24,332.31,85.46Z" class="animable" style="transform-origin:339.155px 90.1538px"/><path fill="#fff" d="M332.31,85.46,346,93.34a1.49,1.49,0,0,1,.69,1.15c0,.42-.31.58-.69.35L332.31,87a1.48,1.48,0,0,1-.69-1.15C331.62,85.4,331.93,85.24,332.31,85.46Z" class="animable" opacity=".6" style="transform-origin:339.155px 90.1538px"/><path fill="#38a169" d="m332.31 91.46 6.42 3.7a1.49 1.49 0 0 1 0.69 1.15c0 0.41-0.31 0.57-0.69 0.35l-6.42-3.66a1.49 1.49 0 0 1-0.69-1.15c0-0.46 0.31-0.61 0.69-0.39z" class="animable" style="transform-origin:335.52px 94.0596px"/><path fill="#fff" d="m332.31 91.46 6.42 3.7a1.49 1.49 0 0 1 0.69 1.15c0 0.41-0.31 0.57-0.69 0.35l-6.42-3.66a1.49 1.49 0 0 1-0.69-1.15c0-0.46 0.31-0.61 0.69-0.39z" class="animable" opacity=".6" style="transform-origin:335.52px 94.0596px"/><path fill="#38a169" d="m332.31 103.47 6.42 3.7a1.51 1.51 0 0 1 0.69 1.16c0 0.41-0.31 0.57-0.69 0.35l-6.42-3.7a1.51 1.51 0 0 1-0.69-1.16c0-0.41 0.31-0.57 0.69-0.35z" class="animable" style="transform-origin:335.52px 106.075px"/><path fill="#fff" d="m332.31 103.47 6.42 3.7a1.51 1.51 0 0 1 0.69 1.16c0 0.41-0.31 0.57-0.69 0.35l-6.42-3.7a1.51 1.51 0 0 1-0.69-1.16c0-0.41 0.31-0.57 0.69-0.35z" class="animable" opacity=".6" style="transform-origin:335.52px 106.075px"/><path fill="#38a169" d="m332.31 109.48 6.42 3.7a1.49 1.49 0 0 1 0.69 1.15c0 0.42-0.31 0.58-0.69 0.35l-6.42-3.7a1.48 1.48 0 0 1-0.69-1.15c0-0.41 0.31-0.57 0.69-0.35z" class="animable" style="transform-origin:335.52px 112.083px"/><path fill="#fff" d="m332.31 109.48 6.42 3.7a1.49 1.49 0 0 1 0.69 1.15c0 0.42-0.31 0.58-0.69 0.35l-6.42-3.7a1.48 1.48 0 0 1-0.69-1.15c0-0.41 0.31-0.57 0.69-0.35z" class="animable" opacity=".6" style="transform-origin:335.52px 112.083px"/><path fill="#38a169" d="M348.72,94.89l8.22,4.77a1.48,1.48,0,0,1,.7,1.15c0,.42-.31.57-.7.35l-8.22-4.76a1.5,1.5,0,0,1-.7-1.16C348,94.83,348.33,94.67,348.72,94.89Z" class="animable" style="transform-origin:352.83px 98.026px"/><path fill="#fff" d="M348.72,94.89l8.22,4.77a1.48,1.48,0,0,1,.7,1.15c0,.42-.31.57-.7.35l-8.22-4.76a1.5,1.5,0,0,1-.7-1.16C348,94.83,348.33,94.67,348.72,94.89Z" class="animable" opacity=".6" style="transform-origin:352.83px 98.026px"/><path fill="#fff" d="m361.44 138.33 55.32 31.85a1.48 1.48 0 0 1 0.69 1.15c0 0.41-0.31 0.57-0.69 0.35l-55.32-31.85a1.48 1.48 0 0 1-0.7-1.15c0-0.42 0.31-0.57 0.7-0.35z" class="animable" style="transform-origin:389.095px 155.004px"/><path fill="#fff" d="m408.53 159.4 8.23 4.76a1.49 1.49 0 0 1 0.69 1.15c0 0.42-0.31 0.57-0.69 0.35l-8.23-4.76a1.49 1.49 0 0 1-0.69-1.15c0-0.42 0.31-0.58 0.69-0.35z" class="animable" style="transform-origin:412.645px 162.528px"/><path fill="#fff" d="m350.52 126 55.32 31.85a1.51 1.51 0 0 1 0.69 1.16c0 0.41-0.31 0.57-0.69 0.35l-55.32-31.86a1.5 1.5 0 0 1-0.69-1.16c0-0.41 0.31-0.57 0.69-0.34z" class="animable" style="transform-origin:378.18px 142.677px"/><path fill="#38a169" d="M342.72,97.47l13.71,7.88a1.46,1.46,0,0,1,.7,1.15c0,.41-.31.57-.7.35L342.72,99a1.48,1.48,0,0,1-.7-1.15C342,97.4,342.33,97.24,342.72,97.47Z" class="animable" style="transform-origin:349.575px 102.157px"/><path fill="#fff" d="M342.72,97.47l13.71,7.88a1.46,1.46,0,0,1,.7,1.15c0,.41-.31.57-.7.35L342.72,99a1.48,1.48,0,0,1-.7-1.15C342,97.4,342.33,97.24,342.72,97.47Z" class="animable" opacity=".6" style="transform-origin:349.575px 102.157px"/><path fill="#38a169" d="m359.12 106.9 57.23 33.1a1.51 1.51 0 0 1 0.69 1.16c0 0.41-0.31 0.57-0.69 0.35l-57.23-33.11a1.49 1.49 0 0 1-0.69-1.15c0-0.42 0.31-0.57 0.69-0.35z" class="animable" style="transform-origin:387.735px 124.204px"/><path fill="#fff" d="m359.12 106.9 57.23 33.1a1.51 1.51 0 0 1 0.69 1.16c0 0.41-0.31 0.57-0.69 0.35l-57.23-33.11a1.49 1.49 0 0 1-0.69-1.15c0-0.42 0.31-0.57 0.69-0.35z" class="animable" opacity=".6" style="transform-origin:387.735px 124.204px"/><path fill="#e6e6e6" d="m342.72 133.64 74 42.69a1.49 1.49 0 0 1 0.69 1.15c0 0.42-0.31 0.58-0.69 0.36l-74-42.7a1.48 1.48 0 0 1-0.72-1.14c0-0.43 0.33-0.58 0.72-0.36z" class="animable" style="transform-origin:379.705px 155.739px"/><path fill="#38a169" d="m332.31 127.63 6.42 3.7a1.49 1.49 0 0 1 0.69 1.15c0 0.42-0.31 0.57-0.69 0.35l-6.42-3.7a1.48 1.48 0 0 1-0.69-1.15c0-0.41 0.31-0.57 0.69-0.35z" class="animable" style="transform-origin:335.52px 130.231px"/><path fill="#fff" d="m332.31 127.63 6.42 3.7a1.49 1.49 0 0 1 0.69 1.15c0 0.42-0.31 0.57-0.69 0.35l-6.42-3.7a1.48 1.48 0 0 1-0.69-1.15c0-0.41 0.31-0.57 0.69-0.35z" class="animable" opacity=".6" style="transform-origin:335.52px 130.231px"/><path fill="#e6e6e6" d="m342.72 139.64 74 42.7a1.49 1.49 0 0 1 0.69 1.15c0 0.42-0.31 0.57-0.69 0.35l-74-42.7a1.46 1.46 0 0 1-0.72-1.14c0-0.42 0.33-0.58 0.72-0.36z" class="animable" style="transform-origin:379.705px 161.741px"/><path fill="#38a169" d="m332.31 133.64 6.42 3.7a1.48 1.48 0 0 1 0.69 1.15c0 0.41-0.31 0.57-0.69 0.35l-6.42-3.7a1.49 1.49 0 0 1-0.69-1.15c0-0.42 0.31-0.57 0.69-0.35z" class="animable" style="transform-origin:335.52px 136.239px"/><path fill="#fff" d="m332.31 133.64 6.42 3.7a1.48 1.48 0 0 1 0.69 1.15c0 0.41-0.31 0.57-0.69 0.35l-6.42-3.7a1.49 1.49 0 0 1-0.69-1.15c0-0.42 0.31-0.57 0.69-0.35z" class="animable" opacity=".6" style="transform-origin:335.52px 136.239px"/><path fill="#e6e6e6" d="m342.72 145.65 74 42.7a1.48 1.48 0 0 1 0.69 1.15c0 0.41-0.31 0.57-0.69 0.35l-74-42.7a1.48 1.48 0 0 1-0.72-1.15c0-0.42 0.33-0.57 0.72-0.35z" class="animable" style="transform-origin:379.705px 167.749px"/><path fill="#38a169" d="m332.31 139.64 6.42 3.7a1.49 1.49 0 0 1 0.69 1.15c0 0.42-0.31 0.58-0.69 0.36l-6.42-3.71a1.48 1.48 0 0 1-0.69-1.15c0-0.41 0.31-0.57 0.69-0.35z" class="animable" style="transform-origin:335.52px 142.245px"/><path fill="#fff" d="m332.31 139.64 6.42 3.7a1.49 1.49 0 0 1 0.69 1.15c0 0.42-0.31 0.58-0.69 0.36l-6.42-3.71a1.48 1.48 0 0 1-0.69-1.15c0-0.41 0.31-0.57 0.69-0.35z" class="animable" opacity=".6" style="transform-origin:335.52px 142.245px"/><g fill="#fff" class="animable" opacity=".6" style="transform-origin:324.19px 109.343px"><path d="m322.31 73.41 3.77 2.18a1.51 1.51 0 0 1 0.68 1.19v1.39c0 0.43-0.3 0.61-0.68 0.39l-3.77-2.18a1.5 1.5 0 0 1-0.69-1.18v-1.39c0-0.44 0.31-0.61 0.69-0.4z" class="animable" style="transform-origin:324.19px 75.9873px"/><path d="m322.31 79.48 3.77 2.18a1.51 1.51 0 0 1 0.68 1.18v1.39c0 0.44-0.3 0.61-0.68 0.4l-3.77-2.18a1.52 1.52 0 0 1-0.69-1.19v-1.39c0-0.43 0.31-0.61 0.69-0.39z" class="animable" style="transform-origin:324.19px 82.0527px"/><path d="m322.31 85.54 3.77 2.18a1.51 1.51 0 0 1 0.68 1.19v1.39c0 0.43-0.3 0.61-0.68 0.39l-3.77-2.18a1.52 1.52 0 0 1-0.69-1.18v-1.39c0-0.44 0.31-0.61 0.69-0.4z" class="animable" style="transform-origin:324.19px 88.1173px"/><path d="m322.31 91.61 3.77 2.18a1.51 1.51 0 0 1 0.68 1.18v1.39c0 0.44-0.3 0.61-0.68 0.4l-3.77-2.18a1.52 1.52 0 0 1-0.69-1.19v-1.39c0-0.43 0.31-0.61 0.69-0.39z" class="animable" style="transform-origin:324.19px 94.1827px"/><path d="m322.31 97.67 3.77 2.18a1.51 1.51 0 0 1 0.68 1.19v1.38c0 0.44-0.3 0.62-0.68 0.4l-3.77-2.18a1.52 1.52 0 0 1-0.69-1.18v-1.39c0-0.44 0.31-0.62 0.69-0.4z" class="animable" style="transform-origin:324.19px 100.245px"/><path d="m322.31 103.74 3.77 2.18a1.49 1.49 0 0 1 0.68 1.18v1.39c0 0.44-0.3 0.61-0.68 0.4l-3.77-2.18a1.52 1.52 0 0 1-0.69-1.19v-1.39c0-0.43 0.31-0.61 0.69-0.39z" class="animable" style="transform-origin:324.19px 106.313px"/><path d="m322.31 109.8 3.77 2.18a1.51 1.51 0 0 1 0.68 1.19v1.38c0 0.44-0.3 0.62-0.68 0.4l-3.77-2.18a1.52 1.52 0 0 1-0.69-1.18v-1.39c0-0.44 0.31-0.62 0.69-0.4z" class="animable" style="transform-origin:324.19px 112.375px"/><path d="m322.31 115.87 3.77 2.18a1.49 1.49 0 0 1 0.68 1.18v1.39c0 0.44-0.3 0.61-0.68 0.39l-3.77-2.17a1.52 1.52 0 0 1-0.69-1.19v-1.39c0-0.43 0.31-0.61 0.69-0.39z" class="animable" style="transform-origin:324.19px 118.441px"/><path d="m322.31 121.93 3.77 2.18a1.51 1.51 0 0 1 0.68 1.19v1.38c0 0.44-0.3 0.62-0.68 0.4l-3.77-2.18a1.52 1.52 0 0 1-0.69-1.19v-1.38c0-0.44 0.31-0.62 0.69-0.4z" class="animable" style="transform-origin:324.19px 124.505px"/><path d="m322.31 128 3.77 2.18a1.48 1.48 0 0 1 0.68 1.18v1.39c0 0.44-0.3 0.61-0.68 0.39l-3.77-2.14a1.52 1.52 0 0 1-0.69-1.19v-1.39c0-0.42 0.31-0.64 0.69-0.42z" class="animable" style="transform-origin:324.19px 130.575px"/><path d="m322.31 134.06 3.77 2.18a1.51 1.51 0 0 1 0.68 1.19v1.38c0 0.44-0.3 0.62-0.68 0.4l-3.77-2.21a1.52 1.52 0 0 1-0.69-1.19v-1.38c0-0.43 0.31-0.59 0.69-0.37z" class="animable" style="transform-origin:324.19px 136.633px"/><path d="m322.31 140.13 3.77 2.17a1.51 1.51 0 0 1 0.68 1.19v1.39c0 0.44-0.3 0.61-0.68 0.39l-3.77-2.17a1.52 1.52 0 0 1-0.69-1.19v-1.39c0-0.43 0.31-0.61 0.69-0.39z" class="animable" style="transform-origin:324.19px 142.701px"/></g><path fill="#37474f" d="m297.28 53.71 20.4 11.78a3 3 0 0 1 1.37 2.37v23.56c0 0.87-0.61 1.23-1.37 0.79l-20.4-11.78a3 3 0 0 1-1.37-2.37v-23.55c0-0.88 0.61-1.23 1.37-0.8z" class="animable" style="transform-origin:307.48px 72.9623px"/><path fill="#38a169" d="m299.17 77.06 1.88 1.09a1.51 1.51 0 0 1 0.7 1.15c0 0.42-0.32 0.57-0.7 0.35l-1.88-1.09a1.48 1.48 0 0 1-0.69-1.15c0-0.41 0.31-0.57 0.69-0.35z" class="animable" style="transform-origin:300.115px 78.356px"/><path fill="#fff" d="m299.17 77.06 1.88 1.09a1.51 1.51 0 0 1 0.7 1.15c0 0.42-0.32 0.57-0.7 0.35l-1.88-1.09a1.48 1.48 0 0 1-0.69-1.15c0-0.41 0.31-0.57 0.69-0.35z" class="animable" opacity=".6" style="transform-origin:300.115px 78.356px"/><path fill="#38a169" d="m299.17 57.77 1.88 1.09a1.51 1.51 0 0 1 0.7 1.15c0 0.42-0.32 0.57-0.7 0.35l-1.88-1.08a1.51 1.51 0 0 1-0.69-1.16c0-0.41 0.31-0.57 0.69-0.35z" class="animable" style="transform-origin:300.115px 59.066px"/><path fill="#fff" d="m299.17 57.77 1.88 1.09a1.51 1.51 0 0 1 0.7 1.15c0 0.42-0.32 0.57-0.7 0.35l-1.88-1.08a1.51 1.51 0 0 1-0.69-1.16c0-0.41 0.31-0.57 0.69-0.35z" class="animable" opacity=".6" style="transform-origin:300.115px 59.066px"/><path fill="#38a169" d="m301.81 63.15 1.88 1.08a1.49 1.49 0 0 1 0.69 1.15c0 0.42-0.31 0.58-0.69 0.35l-1.88-1.08a1.49 1.49 0 0 1-0.69-1.15c0-0.42 0.31-0.57 0.69-0.35z" class="animable" style="transform-origin:302.75px 64.4422px"/><path fill="#fff" d="m301.81 63.15 1.88 1.08a1.49 1.49 0 0 1 0.69 1.15c0 0.42-0.31 0.58-0.69 0.35l-1.88-1.08a1.49 1.49 0 0 1-0.69-1.15c0-0.42 0.31-0.57 0.69-0.35z" class="animable" opacity=".6" style="transform-origin:302.75px 64.4422px"/><path fill="#38a169" d="m301.81 67 1.88 1.09a1.49 1.49 0 0 1 0.69 1.15c0 0.42-0.31 0.57-0.69 0.35l-1.88-1.08a1.49 1.49 0 0 1-0.69-1.15c0-0.43 0.31-0.59 0.69-0.36z" class="animable" style="transform-origin:302.75px 68.2929px"/><path fill="#fff" d="m301.81 67 1.88 1.09a1.49 1.49 0 0 1 0.69 1.15c0 0.42-0.31 0.57-0.69 0.35l-1.88-1.08a1.49 1.49 0 0 1-0.69-1.15c0-0.43 0.31-0.59 0.69-0.36z" class="animable" opacity=".6" style="transform-origin:302.75px 68.2929px"/><path fill="#38a169" d="m299.17 69.34 1.88 1.09a1.51 1.51 0 0 1 0.7 1.15c0 0.42-0.32 0.57-0.7 0.35l-1.88-1.08a1.5 1.5 0 0 1-0.69-1.16c0-0.41 0.31-0.57 0.69-0.35z" class="animable" style="transform-origin:300.115px 70.636px"/><path fill="#fff" d="m299.17 69.34 1.88 1.09a1.51 1.51 0 0 1 0.7 1.15c0 0.42-0.32 0.57-0.7 0.35l-1.88-1.08a1.5 1.5 0 0 1-0.69-1.16c0-0.41 0.31-0.57 0.69-0.35z" class="animable" opacity=".6" style="transform-origin:300.115px 70.636px"/><path fill="#38a169" d="m301.81 74.72 1.88 1.09a1.48 1.48 0 0 1 0.69 1.15c0 0.41-0.31 0.57-0.69 0.35l-1.88-1.09a1.48 1.48 0 0 1-0.69-1.15c0-0.41 0.31-0.57 0.69-0.35z" class="animable" style="transform-origin:302.75px 76.015px"/><path fill="#fff" d="m301.81 74.72 1.88 1.09a1.48 1.48 0 0 1 0.69 1.15c0 0.41-0.31 0.57-0.69 0.35l-1.88-1.09a1.48 1.48 0 0 1-0.69-1.15c0-0.41 0.31-0.57 0.69-0.35z" class="animable" opacity=".6" style="transform-origin:302.75px 76.015px"/><path fill="#38a169" d="m304.32 60.74 11.46 6.63a1.46 1.46 0 0 1 0.7 1.15c0 0.41-0.31 0.57-0.7 0.35l-11.46-6.62a1.48 1.48 0 0 1-0.7-1.16c0-0.41 0.31-0.57 0.7-0.35z" class="animable" style="transform-origin:310.05px 64.805px"/><path fill="#fff" d="m304.32 60.74 11.46 6.63a1.46 1.46 0 0 1 0.7 1.15c0 0.41-0.31 0.57-0.7 0.35l-11.46-6.62a1.48 1.48 0 0 1-0.7-1.16c0-0.41 0.31-0.57 0.7-0.35z" class="animable" opacity=".8" style="transform-origin:310.05px 64.805px"/><path fill="#38a169" d="M304.32,80l11.46,6.63a1.46,1.46,0,0,1,.7,1.15c0,.41-.31.57-.7.35l-11.46-6.62a1.5,1.5,0,0,1-.7-1.16C303.62,80,303.93,79.81,304.32,80Z" class="animable" style="transform-origin:310.05px 84.0769px"/><path fill="#fff" d="M304.32,80l11.46,6.63a1.46,1.46,0,0,1,.7,1.15c0,.41-.31.57-.7.35l-11.46-6.62a1.5,1.5,0,0,1-.7-1.16C303.62,80,303.93,79.81,304.32,80Z" class="animable" opacity=".8" style="transform-origin:310.05px 84.0769px"/><path fill="#38a169" d="M307,66.12l8.82,5.1a1.48,1.48,0,0,1,.7,1.16c0,.41-.31.57-.7.35L307,67.62a1.48,1.48,0,0,1-.7-1.15C306.26,66.05,306.57,65.9,307,66.12Z" class="animable" style="transform-origin:311.408px 69.424px"/><path fill="#fff" d="M307,66.12l8.82,5.1a1.48,1.48,0,0,1,.7,1.16c0,.41-.31.57-.7.35L307,67.62a1.48,1.48,0,0,1-.7-1.15C306.26,66.05,306.57,65.9,307,66.12Z" class="animable" opacity=".8" style="transform-origin:311.408px 69.424px"/><path fill="#38a169" d="M307,70l8.82,5.11a1.48,1.48,0,0,1,.7,1.15c0,.42-.31.57-.7.35L307,71.48a1.48,1.48,0,0,1-.7-1.15C306.26,69.91,306.57,69.75,307,70Z" class="animable" style="transform-origin:311.408px 73.296px"/><path fill="#fff" d="M307,70l8.82,5.11a1.48,1.48,0,0,1,.7,1.15c0,.42-.31.57-.7.35L307,71.48a1.48,1.48,0,0,1-.7-1.15C306.26,69.91,306.57,69.75,307,70Z" class="animable" opacity=".8" style="transform-origin:311.408px 73.296px"/><path fill="#38a169" d="m304.32 72.32 11.46 6.62a1.48 1.48 0 0 1 0.7 1.15c0 0.42-0.31 0.57-0.7 0.35l-11.46-6.62a1.48 1.48 0 0 1-0.7-1.15c0-0.42 0.31-0.57 0.7-0.35z" class="animable" style="transform-origin:310.05px 76.38px"/><path fill="#fff" d="m304.32 72.32 11.46 6.62a1.48 1.48 0 0 1 0.7 1.15c0 0.42-0.31 0.57-0.7 0.35l-11.46-6.62a1.48 1.48 0 0 1-0.7-1.15c0-0.42 0.31-0.57 0.7-0.35z" class="animable" opacity=".8" style="transform-origin:310.05px 76.38px"/><path fill="#38a169" d="M307,77.69l8.82,5.11a1.46,1.46,0,0,1,.7,1.15c0,.41-.31.57-.7.35L307,79.19a1.46,1.46,0,0,1-.7-1.15C306.26,77.63,306.57,77.47,307,77.69Z" class="animable" style="transform-origin:311.408px 80.995px"/><path fill="#fff" d="M307,77.69l8.82,5.11a1.46,1.46,0,0,1,.7,1.15c0,.41-.31.57-.7.35L307,79.19a1.46,1.46,0,0,1-.7-1.15C306.26,77.63,306.57,77.47,307,77.69Z" class="animable" opacity=".8" style="transform-origin:311.408px 80.995px"/><path fill="#37474f" d="m297.28 84.87 20.4 11.77a3 3 0 0 1 1.37 2.36v46.54c0 0.88-0.61 1.23-1.37 0.79l-20.4-11.78a3 3 0 0 1-1.37-2.37v-46.52c0-0.88 0.61-1.23 1.37-0.79z" class="animable" style="transform-origin:307.48px 115.6px"/><path fill="#38a169" d="m299.17 88.92 1.88 1.08a1.51 1.51 0 0 1 0.7 1.15c0 0.42-0.32 0.57-0.7 0.35l-1.88-1.08a1.49 1.49 0 0 1-0.69-1.15c0-0.41 0.31-0.57 0.69-0.35z" class="animable" style="transform-origin:300.115px 90.211px"/><path fill="#fff" d="m299.17 88.92 1.88 1.08a1.51 1.51 0 0 1 0.7 1.15c0 0.42-0.32 0.57-0.7 0.35l-1.88-1.08a1.49 1.49 0 0 1-0.69-1.15c0-0.41 0.31-0.57 0.69-0.35z" class="animable" opacity=".6" style="transform-origin:300.115px 90.211px"/><path fill="#38a169" d="m301.81 94.3 1.88 1.08a1.5 1.5 0 0 1 0.69 1.16c0 0.41-0.31 0.57-0.69 0.35l-1.88-1.09a1.49 1.49 0 0 1-0.69-1.15c0-0.42 0.31-0.57 0.69-0.35z" class="animable" style="transform-origin:302.75px 95.594px"/><path fill="#fff" d="m301.81 94.3 1.88 1.08a1.5 1.5 0 0 1 0.69 1.16c0 0.41-0.31 0.57-0.69 0.35l-1.88-1.09a1.49 1.49 0 0 1-0.69-1.15c0-0.42 0.31-0.57 0.69-0.35z" class="animable" opacity=".6" style="transform-origin:302.75px 95.594px"/><path fill="#38a169" d="m301.81 98.15 1.88 1.08a1.49 1.49 0 0 1 0.69 1.15c0 0.42-0.31 0.57-0.69 0.35l-1.88-1.08a1.49 1.49 0 0 1-0.69-1.15c0-0.42 0.31-0.58 0.69-0.35z" class="animable" style="transform-origin:302.75px 99.4378px"/><path fill="#fff" d="m301.81 98.15 1.88 1.08a1.49 1.49 0 0 1 0.69 1.15c0 0.42-0.31 0.57-0.69 0.35l-1.88-1.08a1.49 1.49 0 0 1-0.69-1.15c0-0.42 0.31-0.58 0.69-0.35z" class="animable" opacity=".6" style="transform-origin:302.75px 99.4378px"/><path fill="#38a169" d="m299.17 100.5 1.88 1.08a1.51 1.51 0 0 1 0.7 1.15c0 0.42-0.32 0.57-0.7 0.35l-1.88-1.08a1.49 1.49 0 0 1-0.69-1.15c0-0.42 0.31-0.58 0.69-0.35z" class="animable" style="transform-origin:300.115px 101.788px"/><path fill="#fff" d="m299.17 100.5 1.88 1.08a1.51 1.51 0 0 1 0.7 1.15c0 0.42-0.32 0.57-0.7 0.35l-1.88-1.08a1.49 1.49 0 0 1-0.69-1.15c0-0.42 0.31-0.58 0.69-0.35z" class="animable" opacity=".6" style="transform-origin:300.115px 101.788px"/><path fill="#38a169" d="m304.32 91.9 11.46 6.62a1.46 1.46 0 0 1 0.7 1.15c0 0.41-0.31 0.57-0.7 0.35l-11.46-6.62a1.48 1.48 0 0 1-0.7-1.15c0-0.42 0.31-0.58 0.7-0.35z" class="animable" style="transform-origin:310.05px 95.9568px"/><path fill="#fff" d="m304.32 91.9 11.46 6.62a1.46 1.46 0 0 1 0.7 1.15c0 0.41-0.31 0.57-0.7 0.35l-11.46-6.62a1.48 1.48 0 0 1-0.7-1.15c0-0.42 0.31-0.58 0.7-0.35z" class="animable" opacity=".8" style="transform-origin:310.05px 95.9568px"/><path fill="#38a169" d="M307,97.27l8.82,5.11a1.46,1.46,0,0,1,.7,1.15c0,.41-.31.57-.7.35L307,98.77a1.48,1.48,0,0,1-.7-1.15C306.26,97.2,306.57,97.05,307,97.27Z" class="animable" style="transform-origin:311.408px 100.574px"/><path fill="#fff" d="M307,97.27l8.82,5.11a1.46,1.46,0,0,1,.7,1.15c0,.41-.31.57-.7.35L307,98.77a1.48,1.48,0,0,1-.7-1.15C306.26,97.2,306.57,97.05,307,97.27Z" class="animable" opacity=".8" style="transform-origin:311.408px 100.574px"/><path fill="#38a169" d="M307,101.13l8.82,5.1a1.48,1.48,0,0,1,.7,1.15c0,.42-.31.58-.7.36L307,102.63a1.48,1.48,0,0,1-.7-1.15C306.26,101.06,306.57,100.9,307,101.13Z" class="animable" style="transform-origin:311.408px 104.432px"/><path fill="#fff" d="M307,101.13l8.82,5.1a1.48,1.48,0,0,1,.7,1.15c0,.42-.31.58-.7.36L307,102.63a1.48,1.48,0,0,1-.7-1.15C306.26,101.06,306.57,100.9,307,101.13Z" class="animable" opacity=".8" style="transform-origin:311.408px 104.432px"/><path fill="#38a169" d="m304.32 103.47 11.46 6.62a1.48 1.48 0 0 1 0.7 1.15c0 0.42-0.31 0.57-0.7 0.35l-11.46-6.59a1.48 1.48 0 0 1-0.7-1.15c0-0.45 0.31-0.6 0.7-0.38z" class="animable" style="transform-origin:310.05px 107.53px"/><path fill="#fff" d="m304.32 103.47 11.46 6.62a1.48 1.48 0 0 1 0.7 1.15c0 0.42-0.31 0.57-0.7 0.35l-11.46-6.59a1.48 1.48 0 0 1-0.7-1.15c0-0.45 0.31-0.6 0.7-0.38z" class="animable" opacity=".8" style="transform-origin:310.05px 107.53px"/><path fill="#38a169" d="m301.81 105.89 1.88 1.09a1.49 1.49 0 0 1 0.69 1.15c0 0.42-0.31 0.57-0.69 0.35l-1.88-1.08a1.49 1.49 0 0 1-0.69-1.15c0-0.42 0.31-0.58 0.69-0.36z" class="animable" style="transform-origin:302.75px 107.186px"/><path fill="#fff" d="m301.81 105.89 1.88 1.09a1.49 1.49 0 0 1 0.69 1.15c0 0.42-0.31 0.57-0.69 0.35l-1.88-1.08a1.49 1.49 0 0 1-0.69-1.15c0-0.42 0.31-0.58 0.69-0.36z" class="animable" opacity=".6" style="transform-origin:302.75px 107.186px"/><path fill="#38a169" d="m301.81 109.74 1.88 1.09a1.49 1.49 0 0 1 0.69 1.15c0 0.41-0.31 0.57-0.69 0.35l-1.88-1.09a1.48 1.48 0 0 1-0.69-1.15c0-0.41 0.31-0.57 0.69-0.35z" class="animable" style="transform-origin:302.75px 111.035px"/><path fill="#fff" d="m301.81 109.74 1.88 1.09a1.49 1.49 0 0 1 0.69 1.15c0 0.41-0.31 0.57-0.69 0.35l-1.88-1.09a1.48 1.48 0 0 1-0.69-1.15c0-0.41 0.31-0.57 0.69-0.35z" class="animable" opacity=".6" style="transform-origin:302.75px 111.035px"/><path fill="#38a169" d="M307,108.86l8.82,5.11a1.48,1.48,0,0,1,.7,1.15c0,.42-.31.58-.7.35l-8.82-5.1a1.48,1.48,0,0,1-.7-1.15C306.26,108.8,306.57,108.64,307,108.86Z" class="animable" style="transform-origin:311.408px 112.168px"/><path fill="#fff" d="M307,108.86l8.82,5.11a1.48,1.48,0,0,1,.7,1.15c0,.42-.31.58-.7.35l-8.82-5.1a1.48,1.48,0,0,1-.7-1.15C306.26,108.8,306.57,108.64,307,108.86Z" class="animable" opacity=".8" style="transform-origin:311.408px 112.168px"/><path fill="#38a169" d="M307,112.72l8.82,5.11a1.48,1.48,0,0,1,.7,1.15c0,.42-.31.57-.7.35L307,114.22a1.46,1.46,0,0,1-.7-1.15C306.26,112.66,306.57,112.5,307,112.72Z" class="animable" style="transform-origin:311.408px 116.026px"/><path fill="#fff" d="M307,112.72l8.82,5.11a1.48,1.48,0,0,1,.7,1.15c0,.42-.31.57-.7.35L307,114.22a1.46,1.46,0,0,1-.7-1.15C306.26,112.66,306.57,112.5,307,112.72Z" class="animable" opacity=".8" style="transform-origin:311.408px 116.026px"/><path fill="#38a169" d="m299.17 119.83 1.88 1.09a1.49 1.49 0 0 1 0.7 1.15c0 0.41-0.32 0.57-0.7 0.35l-1.88-1.09a1.48 1.48 0 0 1-0.69-1.15c0-0.41 0.31-0.57 0.69-0.35z" class="animable" style="transform-origin:300.115px 121.125px"/><path fill="#fff" d="m299.17 119.83 1.88 1.09a1.49 1.49 0 0 1 0.7 1.15c0 0.41-0.32 0.57-0.7 0.35l-1.88-1.09a1.48 1.48 0 0 1-0.69-1.15c0-0.41 0.31-0.57 0.69-0.35z" class="animable" opacity=".6" style="transform-origin:300.115px 121.125px"/><path fill="#38a169" d="m304.32 122.8 11.46 6.63a1.46 1.46 0 0 1 0.7 1.15c0 0.41-0.31 0.57-0.7 0.35l-11.46-6.62a1.48 1.48 0 0 1-0.7-1.15c0-0.42 0.31-0.58 0.7-0.36z" class="animable" style="transform-origin:310.05px 126.865px"/><path fill="#fff" d="m304.32 122.8 11.46 6.63a1.46 1.46 0 0 1 0.7 1.15c0 0.41-0.31 0.57-0.7 0.35l-11.46-6.62a1.48 1.48 0 0 1-0.7-1.15c0-0.42 0.31-0.58 0.7-0.36z" class="animable" opacity=".8" style="transform-origin:310.05px 126.865px"/><path fill="#38a169" d="m301.81 125.23 1.88 1.09a1.48 1.48 0 0 1 0.69 1.15c0 0.41-0.31 0.57-0.69 0.35l-1.88-1.09a1.48 1.48 0 0 1-0.69-1.15c0-0.41 0.31-0.58 0.69-0.35z" class="animable" style="transform-origin:302.75px 126.523px"/><path fill="#fff" d="m301.81 125.23 1.88 1.09a1.48 1.48 0 0 1 0.69 1.15c0 0.41-0.31 0.57-0.69 0.35l-1.88-1.09a1.48 1.48 0 0 1-0.69-1.15c0-0.41 0.31-0.58 0.69-0.35z" class="animable" opacity=".6" style="transform-origin:302.75px 126.523px"/><path fill="#38a169" d="m301.81 129.08 1.88 1.08a1.51 1.51 0 0 1 0.69 1.16c0 0.41-0.31 0.57-0.69 0.35l-1.88-1.09a1.49 1.49 0 0 1-0.69-1.15c0-0.43 0.31-0.57 0.69-0.35z" class="animable" style="transform-origin:302.75px 130.373px"/><path fill="#fff" d="m301.81 129.08 1.88 1.08a1.51 1.51 0 0 1 0.69 1.16c0 0.41-0.31 0.57-0.69 0.35l-1.88-1.09a1.49 1.49 0 0 1-0.69-1.15c0-0.43 0.31-0.57 0.69-0.35z" class="animable" opacity=".6" style="transform-origin:302.75px 130.373px"/><path fill="#38a169" d="M307,128.2l8.82,5.11a1.46,1.46,0,0,1,.7,1.15c0,.41-.31.57-.7.35L307,129.7a1.46,1.46,0,0,1-.7-1.15C306.26,128.14,306.57,128,307,128.2Z" class="animable" style="transform-origin:311.408px 131.509px"/><path fill="#fff" d="M307,128.2l8.82,5.11a1.46,1.46,0,0,1,.7,1.15c0,.41-.31.57-.7.35L307,129.7a1.46,1.46,0,0,1-.7-1.15C306.26,128.14,306.57,128,307,128.2Z" class="animable" opacity=".8" style="transform-origin:311.408px 131.509px"/><path fill="#38a169" d="M307,132.06l8.82,5.11a1.46,1.46,0,0,1,.7,1.15c0,.41-.31.57-.7.35L307,133.56a1.48,1.48,0,0,1-.7-1.15C306.26,132,306.57,131.84,307,132.06Z" class="animable" style="transform-origin:311.408px 135.365px"/><path fill="#fff" d="M307,132.06l8.82,5.11a1.46,1.46,0,0,1,.7,1.15c0,.41-.31.57-.7.35L307,133.56a1.48,1.48,0,0,1-.7-1.15C306.26,132,306.57,131.84,307,132.06Z" class="animable" opacity=".8" style="transform-origin:311.408px 135.365px"/><path fill="#38a169" d="m301.81 113.57 1.88 1.09a1.48 1.48 0 0 1 0.69 1.15c0 0.41-0.31 0.57-0.69 0.35l-1.88-1.09a1.48 1.48 0 0 1-0.69-1.15c0-0.41 0.31-0.57 0.69-0.35z" class="animable" style="transform-origin:302.75px 114.865px"/><path fill="#fff" d="m301.81 113.57 1.88 1.09a1.48 1.48 0 0 1 0.69 1.15c0 0.41-0.31 0.57-0.69 0.35l-1.88-1.09a1.48 1.48 0 0 1-0.69-1.15c0-0.41 0.31-0.57 0.69-0.35z" class="animable" opacity=".6" style="transform-origin:302.75px 114.865px"/><path fill="#38a169" d="m299.17 115.92 1.88 1.09a1.49 1.49 0 0 1 0.7 1.15c0 0.41-0.32 0.57-0.7 0.35l-1.88-1.09a1.48 1.48 0 0 1-0.69-1.15c0-0.41 0.31-0.57 0.69-0.35z" class="animable" style="transform-origin:300.115px 117.215px"/><path fill="#fff" d="m299.17 115.92 1.88 1.09a1.49 1.49 0 0 1 0.7 1.15c0 0.41-0.32 0.57-0.7 0.35l-1.88-1.09a1.48 1.48 0 0 1-0.69-1.15c0-0.41 0.31-0.57 0.69-0.35z" class="animable" opacity=".6" style="transform-origin:300.115px 117.215px"/><path fill="#38a169" d="m307 116.55 8.82 5.11a1.46 1.46 0 0 1 0.7 1.15c0 0.41-0.31 0.57-0.7 0.35l-8.82-5.11a1.46 1.46 0 0 1-0.7-1.15c-0.04-0.41 0.27-0.57 0.7-0.35z" class="animable" style="transform-origin:311.408px 119.855px"/><path fill="#fff" d="m307 116.55 8.82 5.11a1.46 1.46 0 0 1 0.7 1.15c0 0.41-0.31 0.57-0.7 0.35l-8.82-5.11a1.46 1.46 0 0 1-0.7-1.15c-0.04-0.41 0.27-0.57 0.7-0.35z" class="animable" opacity=".8" style="transform-origin:311.408px 119.855px"/><path fill="#38a169" d="m304.32 118.89 11.46 6.63a1.46 1.46 0 0 1 0.7 1.15c0 0.41-0.31 0.57-0.7 0.35l-11.46-6.62a1.5 1.5 0 0 1-0.7-1.16c0-0.41 0.31-0.57 0.7-0.35z" class="animable" style="transform-origin:310.05px 122.955px"/><path fill="#fff" d="m304.32 118.89 11.46 6.63a1.46 1.46 0 0 1 0.7 1.15c0 0.41-0.31 0.57-0.7 0.35l-11.46-6.62a1.5 1.5 0 0 1-0.7-1.16c0-0.41 0.31-0.57 0.7-0.35z" class="animable" opacity=".8" style="transform-origin:310.05px 122.955px"/><path fill="#38a169" d="m299.17 131.48 1.88 1.09a1.49 1.49 0 0 1 0.7 1.15c0 0.41-0.32 0.57-0.7 0.35l-1.88-1.07a1.48 1.48 0 0 1-0.69-1.15c0-0.43 0.31-0.59 0.69-0.37z" class="animable" style="transform-origin:300.115px 132.775px"/><path fill="#fff" d="m299.17 131.48 1.88 1.09a1.49 1.49 0 0 1 0.7 1.15c0 0.41-0.32 0.57-0.7 0.35l-1.88-1.07a1.48 1.48 0 0 1-0.69-1.15c0-0.43 0.31-0.59 0.69-0.37z" class="animable" opacity=".6" style="transform-origin:300.115px 132.775px"/><path fill="#38a169" d="m304.32 134.46 11.46 6.62a1.46 1.46 0 0 1 0.7 1.15c0 0.41-0.31 0.57-0.7 0.35l-11.46-6.58a1.48 1.48 0 0 1-0.7-1.15c0-0.46 0.31-0.62 0.7-0.39z" class="animable" style="transform-origin:310.05px 138.517px"/><path fill="#fff" d="m304.32 134.46 11.46 6.62a1.46 1.46 0 0 1 0.7 1.15c0 0.41-0.31 0.57-0.7 0.35l-11.46-6.58a1.48 1.48 0 0 1-0.7-1.15c0-0.46 0.31-0.62 0.7-0.39z" class="animable" opacity=".8" style="transform-origin:310.05px 138.517px"/></g></g><g class="animable" style="transform-origin:435.575px 201.337px"><g class="animable" opacity=".8" style="transform-origin:434.31px 202.084px"><path fill="#455a64" d="M410.78,150.29v76.38a3.51,3.51,0,0,0,1.59,2.75l43.88,25.32a1.1,1.1,0,0,0,.53.15l.2,0,.13,0,.09,0,.09-.06.09-.08a1.22,1.22,0,0,0,.29-.42,1.88,1.88,0,0,0,.17-.8v-76a3.5,3.5,0,0,0-1.59-2.75l-43.88-25.29a1.16,1.16,0,0,0-1.07-.14l-.13.08h0l-.11.1a.21.21,0,0,0,0,.06.26.26,0,0,0-.05.09.54.54,0,0,0-.1.2.58.58,0,0,0,0,.14,0,0,0,0,0,0,0l0,.15C410.79,150.16,410.78,150.23,410.78,150.29Z" class="animable" style="transform-origin:434.31px 202.084px"/></g><path fill="#38a169" d="m411.3 149.24a1.16 1.16 0 0 1 1.07 0.14l43.88 25.29a3.5 3.5 0 0 1 1.59 2.75v5.18l2.53-1.46v-5.14a3.48 3.48 0 0 0-1.59-2.74l-43.88-25.26a1.11 1.11 0 0 0-1.15-0.1c-0.29 0.1-2.11 1.17-2.45 1.34z" class="animable" style="transform-origin:435.835px 165.192px"/><path fill="#38a169" d="M410.79,150.28c0-1,.71-1.4,1.58-.9l43.88,25.29a3.51,3.51,0,0,1,1.59,2.75v5.18l-47-27.11Z" class="animable" style="transform-origin:434.315px 165.882px"/><g class="animable" opacity=".5" style="transform-origin:435.6px 161.817px"><path fill="#fff" d="M412.37,149.38l43.88,25.29a3.27,3.27,0,0,1,1.12,1.18l2.52-1.45a3.23,3.23,0,0,0-1.11-1.15L414.9,148a1.11,1.11,0,0,0-1.15-.1c-.28.18-2.11,1.2-2.44,1.38A1.11,1.11,0,0,1,412.37,149.38Z" class="animable" style="transform-origin:435.6px 161.817px"/></g><path d="M460.37,181.15V176a3.36,3.36,0,0,0-.48-1.59l-2.53,1.44a3.16,3.16,0,0,1,.48,1.58v5.18Z" class="animable" opacity=".15" style="transform-origin:458.865px 178.51px"/><path fill="#455a64" d="m455.53 176.8a2.37 2.37 0 0 1 0.9 1.9c0 0.76-0.4 1.15-0.9 0.86a2.36 2.36 0 0 1-0.9-1.89c0-0.77 0.37-1.15 0.9-0.87z" class="animable" style="transform-origin:455.53px 178.182px"/><path fill="#455a64" d="m452.3 174.94a2.33 2.33 0 0 1 0.9 1.89c0 0.77-0.4 1.15-0.9 0.87a2.39 2.39 0 0 1-0.89-1.9c0-0.8 0.4-1.15 0.89-0.86z" class="animable" style="transform-origin:452.305px 176.315px"/><path fill="#455a64" d="m449.08 173.07a2.39 2.39 0 0 1 0.92 1.93c0 0.76-0.4 1.15-0.89 0.86a2.35 2.35 0 0 1-0.9-1.9c-0.03-0.79 0.37-1.17 0.87-0.89z" class="animable" style="transform-origin:449.104px 174.467px"/><g class="animable" opacity=".9" style="transform-origin:458.8px 217.94px"><path fill="#37474f" d="M457.26,254.74l.19-.11.49-.28h0a1.74,1.74,0,0,1,.26-.15h0l.42-.24.85-.48.2-.11a.9.9,0,0,0,.27-.21,1.1,1.1,0,0,0,.21-.33,1.89,1.89,0,0,0,.19-.84V181.14l-2.53,1.46v70.81a2.31,2.31,0,0,1-.17.8,1.22,1.22,0,0,1-.29.42.24.24,0,0,1-.09.08Z" class="animable" style="transform-origin:458.8px 217.94px"/></g><path fill="#38a169" d="M414.43,164.25a.25.25,0,0,1,.08-.2l1.14-1s0,0,.05,0h0a.17.17,0,0,1,.09.11.29.29,0,0,1,0,.16v.79a1.09,1.09,0,0,1,0,.22.83.83,0,0,1-.08.12l-.61.55.61,1.25c0,.08.06.15.08.22a1.44,1.44,0,0,1,0,.24v.79c0,.06,0,.1,0,.12a.07.07,0,0,1-.09,0l0,0-.05-.07-1.14-2.37a.67.67,0,0,1-.08-.29Z" class="animable" style="transform-origin:415.115px 165.343px"/><path fill="#38a169" d="M418.6,163.15a.3.3,0,0,1,.09-.13s.09,0,.17,0l.42.25a.17.17,0,0,1,.09.11.29.29,0,0,1,0,.16.2.2,0,0,1,0,.07l-2,6.08a.26.26,0,0,1-.08.13s-.09,0-.17,0l-.41-.24a.2.2,0,0,1-.09-.11.32.32,0,0,1,0-.16s0-.05,0-.07Z" class="animable" style="transform-origin:417.996px 166.42px"/><path fill="#38a169" d="M421.63,169a.26.26,0,0,1-.08.21l-1.14,1a.07.07,0,0,1-.06,0h0a.2.2,0,0,1-.09-.11.32.32,0,0,1,0-.16v-.79a1,1,0,0,1,0-.22.35.35,0,0,1,.08-.13l.6-.55-.6-1.24a2.11,2.11,0,0,1-.08-.22,1.44,1.44,0,0,1,0-.24v-.8a.12.12,0,0,1,0-.11s.05,0,.09,0l0,0a.22.22,0,0,1,.06.07l1.14,2.36a.67.67,0,0,1,.08.3Z" class="animable" style="transform-origin:420.939px 167.928px"/><path fill="#38a169" d="M424.8,172.11a.29.29,0,0,1,.11.13.48.48,0,0,1,0,.2v.87a.18.18,0,0,1,0,.14.08.08,0,0,1-.11,0l-.54-.31a.29.29,0,0,1-.11-.13.49.49,0,0,1,0-.2V172a.21.21,0,0,1,0-.15.08.08,0,0,1,.11,0Z" class="animable" style="transform-origin:424.53px 172.65px"/><path fill="#38a169" d="M426.6,173.15a.29.29,0,0,1,.11.13.48.48,0,0,1,0,.2v.87a.18.18,0,0,1,0,.14.09.09,0,0,1-.11,0l-.54-.31a.36.36,0,0,1-.11-.13.53.53,0,0,1-.05-.2V173a.21.21,0,0,1,.05-.15.08.08,0,0,1,.11,0Z" class="animable" style="transform-origin:426.312px 173.668px"/><path fill="#38a169" d="M428.4,174.19a.25.25,0,0,1,.11.13.48.48,0,0,1,0,.2v.87a.2.2,0,0,1,0,.14.09.09,0,0,1-.11,0l-.54-.31a.33.33,0,0,1-.11-.14.45.45,0,0,1-.05-.19V174a.2.2,0,0,1,.05-.14.09.09,0,0,1,.11,0Z" class="animable" style="transform-origin:428.111px 174.695px"/><path fill="#38a169" d="M414.91,171.17l26.36,15.22a1.2,1.2,0,0,1,.57.94c0,.34-.25.46-.57.28l-26.36-15.22a1.21,1.21,0,0,1-.56-.93C414.35,171.12,414.6,171,414.91,171.17Z" class="animable" style="transform-origin:428.095px 179.393px"/><path fill="#e6e6e6" d="m423.37 190.71 26.36 15.22a1.19 1.19 0 0 1 0.57 0.93c0 0.34-0.25 0.47-0.57 0.29l-26.36-15.22a1.21 1.21 0 0 1-0.56-0.94c0-0.34 0.25-0.46 0.56-0.28z" class="animable" style="transform-origin:436.555px 198.929px"/><path fill="#e6e6e6" d="M423.37,200.47,436,207.76a1.21,1.21,0,0,1,.56.94c0,.34-.25.46-.56.28l-12.62-7.29a1.19,1.19,0,0,1-.56-.93C422.81,200.42,423.06,200.29,423.37,200.47Z" class="animable" style="transform-origin:429.69px 204.726px"/><path fill="#38a169" d="m443.46 187.65 10.5 6a1.19 1.19 0 0 1 0.57 0.93c0 0.34-0.26 0.47-0.57 0.29l-10.5-6a1.19 1.19 0 0 1-0.56-0.93c0-0.34 0.25-0.47 0.56-0.29z" class="animable" style="transform-origin:448.715px 191.26px"/><path fill="#38a169" d="m414.91 224.89 26.36 15.22a1.19 1.19 0 0 1 0.57 0.93c0 0.34-0.25 0.47-0.57 0.29l-26.36-15.22a1.21 1.21 0 0 1-0.56-0.94c0-0.34 0.25-0.46 0.56-0.28z" class="animable" style="transform-origin:428.095px 233.109px"/><path fill="#38a169" d="m443.46 241.37 10.5 6a1.22 1.22 0 0 1 0.57 0.94c0 0.33-0.26 0.46-0.57 0.28l-10.5-6a1.21 1.21 0 0 1-0.56-0.94c0-0.33 0.25-0.46 0.56-0.28z" class="animable" style="transform-origin:448.715px 244.98px"/><path fill="#38a169" d="m443.46 226.74 10.5 6a1.2 1.2 0 0 1 0.57 0.93c0 0.34-0.26 0.47-0.57 0.29l-10.5-6a1.21 1.21 0 0 1-0.56-0.94c0-0.33 0.25-0.46 0.56-0.28z" class="animable" style="transform-origin:448.715px 230.35px"/><path fill="#38a169" d="m443.46 231.63 10.5 6a1.22 1.22 0 0 1 0.57 0.93c0 0.34-0.26 0.47-0.57 0.29l-10.5-6a1.21 1.21 0 0 1-0.56-0.94c0-0.34 0.25-0.46 0.56-0.28z" class="animable" style="transform-origin:448.715px 235.239px"/><path fill="#38a169" d="m434.5 221.56 5.9 3.41a1.18 1.18 0 0 1 0.57 0.93c0 0.34-0.25 0.47-0.57 0.29l-5.9-3.41a1.21 1.21 0 0 1-0.56-0.94c0-0.33 0.25-0.46 0.56-0.28z" class="animable" style="transform-origin:437.455px 223.875px"/><path fill="#38a169" d="M414.91,176.07l15.38,8.87a1.21,1.21,0,0,1,.56.93c0,.34-.25.47-.56.29l-15.38-8.87a1.21,1.21,0,0,1-.56-.94C414.35,176,414.6,175.89,414.91,176.07Z" class="animable" style="transform-origin:422.6px 181.113px"/><path fill="#fff" d="M414.91,176.07l15.38,8.87a1.21,1.21,0,0,1,.56.93c0,.34-.25.47-.56.29l-15.38-8.87a1.21,1.21,0,0,1-.56-.94C414.35,176,414.6,175.89,414.91,176.07Z" class="animable" opacity=".6" style="transform-origin:422.6px 181.113px"/><path fill="#38a169" d="m414.91 180.94 5.22 3a1.21 1.21 0 0 1 0.56 0.93c0 0.34-0.25 0.47-0.56 0.29l-5.22-3a1.21 1.21 0 0 1-0.56-0.93c0-0.34 0.25-0.47 0.56-0.29z" class="animable" style="transform-origin:417.52px 183.05px"/><path fill="#fff" d="m414.91 180.94 5.22 3a1.21 1.21 0 0 1 0.56 0.93c0 0.34-0.25 0.47-0.56 0.29l-5.22-3a1.21 1.21 0 0 1-0.56-0.93c0-0.34 0.25-0.47 0.56-0.29z" class="animable" opacity=".6" style="transform-origin:417.52px 183.05px"/><path fill="#38a169" d="m414.91 185.82 5.22 3a1.21 1.21 0 0 1 0.56 0.94c0 0.33-0.25 0.46-0.56 0.28l-5.22-3a1.18 1.18 0 0 1-0.56-0.93c0-0.34 0.25-0.47 0.56-0.29z" class="animable" style="transform-origin:417.52px 187.93px"/><path fill="#fff" d="m414.91 185.82 5.22 3a1.21 1.21 0 0 1 0.56 0.94c0 0.33-0.25 0.46-0.56 0.28l-5.22-3a1.18 1.18 0 0 1-0.56-0.93c0-0.34 0.25-0.47 0.56-0.29z" class="animable" opacity=".6" style="transform-origin:417.52px 187.93px"/><path fill="#38a169" d="m414.91 190.71 5.22 3a1.19 1.19 0 0 1 0.56 0.93c0 0.34-0.25 0.47-0.56 0.29l-5.22-3a1.21 1.21 0 0 1-0.56-0.94c0-0.34 0.25-0.46 0.56-0.28z" class="animable" style="transform-origin:417.52px 192.819px"/><path fill="#fff" d="m414.91 190.71 5.22 3a1.21 1.21 0 0 1 0.56 0.94c0 0.34-0.25 0.46-0.56 0.28l-5.22-3a1.21 1.21 0 0 1-0.56-0.94c0-0.34 0.25-0.46 0.56-0.28z" class="animable" opacity=".6" style="transform-origin:417.52px 192.82px"/><path fill="#38a169" d="m423.37 195.59 15.38 8.87a1.21 1.21 0 0 1 0.56 0.94c0 0.33-0.25 0.46-0.56 0.28l-15.38-8.87a1.21 1.21 0 0 1-0.56-0.94c0-0.33 0.25-0.46 0.56-0.28z" class="animable" opacity=".6" style="transform-origin:431.06px 200.635px"/><path fill="#38a169" d="m440.93 205.72 6.69 3.88a1.18 1.18 0 0 1 0.56 0.93c0 0.34-0.25 0.47-0.56 0.29l-6.69-3.88a1.21 1.21 0 0 1-0.56-0.93c0-0.34 0.25-0.47 0.56-0.29z" class="animable" opacity=".6" style="transform-origin:444.275px 208.27px"/><path fill="#fff" d="m423.37 195.59 15.38 8.87a1.21 1.21 0 0 1 0.56 0.94c0 0.33-0.25 0.46-0.56 0.28l-15.38-8.87a1.21 1.21 0 0 1-0.56-0.94c0-0.33 0.25-0.46 0.56-0.28z" class="animable" opacity=".6" style="transform-origin:431.06px 200.635px"/><path fill="#fff" d="m440.93 205.72 6.69 3.88a1.18 1.18 0 0 1 0.56 0.93c0 0.34-0.25 0.47-0.56 0.29l-6.69-3.88a1.21 1.21 0 0 1-0.56-0.93c0-0.34 0.25-0.47 0.56-0.29z" class="animable" opacity=".6" style="transform-origin:444.275px 208.27px"/><path fill="#38a169" d="m414.91 195.59 5.22 3a1.21 1.21 0 0 1 0.56 0.93c0 0.34-0.25 0.47-0.56 0.29l-5.22-3a1.21 1.21 0 0 1-0.56-0.93c0-0.34 0.25-0.47 0.56-0.29z" class="animable" style="transform-origin:417.52px 197.7px"/><path fill="#fff" d="m414.91 195.59 5.22 3a1.21 1.21 0 0 1 0.56 0.93c0 0.34-0.25 0.47-0.56 0.29l-5.22-3a1.21 1.21 0 0 1-0.56-0.93c0-0.34 0.25-0.47 0.56-0.29z" class="animable" opacity=".6" style="transform-origin:417.52px 197.7px"/><path fill="#38a169" d="M432.47,186.2l6.69,3.87a1.21,1.21,0,0,1,.56.94c0,.33-.25.46-.56.28l-6.69-3.87a1.21,1.21,0,0,1-.56-.94C431.91,186.15,432.16,186,432.47,186.2Z" class="animable" style="transform-origin:435.815px 188.741px"/><path fill="#fff" d="M432.47,186.2l6.69,3.87a1.21,1.21,0,0,1,.56.94c0,.33-.25.46-.56.28l-6.69-3.87a1.21,1.21,0,0,1-.56-.94C431.91,186.15,432.16,186,432.47,186.2Z" class="animable" opacity=".6" style="transform-origin:435.815px 188.741px"/><path fill="#fff" d="M429.71,209l15.38,8.87a1.22,1.22,0,0,1,.57.94c0,.34-.26.46-.57.29l-15.38-8.88a1.21,1.21,0,0,1-.56-.93C429.15,209,429.4,208.83,429.71,209Z" class="animable" style="transform-origin:437.405px 214.054px"/><path fill="#fff" d="M438.59,219,454,227.91a1.22,1.22,0,0,1,.57.94c0,.33-.26.46-.57.28l-15.37-8.87a1.2,1.2,0,0,1-.57-.94C438,219,438.27,218.86,438.59,219Z" class="animable" style="transform-origin:446.311px 224.079px"/><path fill="#fff" d="M447.28,219.15,454,223a1.22,1.22,0,0,1,.57.93c0,.34-.26.47-.57.29l-6.68-3.87a1.2,1.2,0,0,1-.57-.94C446.71,219.09,447,219,447.28,219.15Z" class="animable" style="transform-origin:450.658px 221.69px"/><path fill="#e6e6e6" d="m447.28 238.49 6.68 3.87a1.22 1.22 0 0 1 0.57 0.94c0 0.33-0.26 0.46-0.57 0.28l-6.68-3.87a1.2 1.2 0 0 1-0.57-0.94c0-0.33 0.29-0.46 0.57-0.28z" class="animable" style="transform-origin:450.62px 241.035px"/><path fill="#38a169" d="m423.37 185.82 15.38 8.88a1.19 1.19 0 0 1 0.56 0.93c0 0.34-0.25 0.47-0.56 0.29l-15.38-8.92a1.18 1.18 0 0 1-0.56-0.93c0-0.3 0.25-0.43 0.56-0.25z" class="animable" style="transform-origin:431.06px 190.869px"/><path fill="#fff" d="m423.37 185.82 15.38 8.88a1.19 1.19 0 0 1 0.56 0.93c0 0.34-0.25 0.47-0.56 0.29l-15.38-8.92a1.18 1.18 0 0 1-0.56-0.93c0-0.3 0.25-0.43 0.56-0.25z" class="animable" opacity=".6" style="transform-origin:431.06px 190.869px"/><path fill="#38a169" d="m440.93 196 6.69 3.87a1.21 1.21 0 0 1 0.56 0.94c0 0.33-0.25 0.46-0.56 0.28l-6.69-3.87a1.21 1.21 0 0 1-0.56-0.94c0-0.38 0.25-0.5 0.56-0.28z" class="animable" style="transform-origin:444.275px 198.531px"/><path fill="#fff" d="m440.93 196 6.69 3.87a1.21 1.21 0 0 1 0.56 0.94c0 0.33-0.25 0.46-0.56 0.28l-6.69-3.87a1.21 1.21 0 0 1-0.56-0.94c0-0.38 0.25-0.5 0.56-0.28z" class="animable" opacity=".6" style="transform-origin:444.275px 198.531px"/></g><g class="animable" style="transform-origin:353.701px 246.38px"><path d="m336.12 251.91 9.42 5.44a10.38 10.38 0 0 0 10.4-0.55l15.55-11.35c2.77-2 2.61-5-0.36-6.77l-4.72-2.74a12.83 12.83 0 0 0-10.93-0.33l-19.19 10.39c-3.07 1.55-3.15 4.19-0.17 5.91z" class="animable" opacity=".15" style="transform-origin:353.701px 246.517px"/><path fill="#37474f" d="m371.74 240.51-10.74 8.41-7.94 6.21a7 7 0 0 1-2.53 0.61 6.88 6.88 0 0 1-3.77-0.79l-8.43-4.87h-0.05a6 6 0 0 1-1.71-8.53l0.25-0.35a11.24 11.24 0 0 1 6.79-4.3l4.27-0.85c6.92-1.41 12.59-2.09 13.25-1.64l10.57 6.12z" class="animable" style="transform-origin:353.609px 245.016px"/><path fill="#38a169" d="M365.73,245.22l.61-.48-9.49-5.47,8.3-2.57-.84-.49-8.3,2.57-5.66-3.26-1.07.2Z" class="animable" style="transform-origin:357.81px 240.37px"/><path fill="#263238" d="M354,254.62l0,0h0l7.56-5.46,10.19-7.36V240.6a.1.1,0,0,0-.05-.09l-.06,0c-.76-.26-5.18,1.07-10.52,3.19l-3.54,1.41a11.21,11.21,0,0,0-7.1,10.47v.18a7,7,0,0,0,2.53-.61Z" class="animable" style="transform-origin:361.115px 248.119px"/></g></g></g><g class="animable animator-hidden" style="transform-origin:394.539px 348.44px"><g class="animable" style="transform-origin:394.539px 348.44px"><path fill="#38a169" d="M372.7,405.51c-10.38-10.71-16.47-54.29-6.35-62.78h51.5c10.12,8.49,4,52.06-6.34,62.77l-.29.3c-.11.12-.23.24-.35.35-.3.29-.61.57-.94.84l-.25.2c-.25.2-.5.4-.78.6a15.26,15.26,0,0,1-1.34.87c-8.54,5-22.38,5-30.92,0h0c-.45-.26-.9-.56-1.35-.88-.26-.18-.49-.37-.73-.56l-.3-.24a12.15,12.15,0,0,1-.91-.81c-.14-.13-.28-.27-.41-.41A2.83,2.83,0,0,1,372.7,405.51Z" class="animable" style="transform-origin:392.097px 377.57px"/><g class="animable" opacity=".5" style="transform-origin:392.097px 377.57px"><path fill="#fff" d="M372.7,405.51c-10.38-10.71-16.47-54.29-6.35-62.78h51.5c10.12,8.49,4,52.06-6.34,62.77l-.29.3c-.11.12-.23.24-.35.35-.3.29-.61.57-.94.84l-.25.2c-.25.2-.5.4-.78.6a15.26,15.26,0,0,1-1.34.87c-8.54,5-22.38,5-30.92,0h0c-.45-.26-.9-.56-1.35-.88-.26-.18-.49-.37-.73-.56l-.3-.24a12.15,12.15,0,0,1-.91-.81c-.14-.13-.28-.27-.41-.41A2.83,2.83,0,0,1,372.7,405.51Z" class="animable" style="transform-origin:392.097px 377.57px"/></g><path fill="#38a169" d="m413.38 339.31c11.75 6.86 11.75 18 0 24.85s-30.81 6.86-42.56 0-11.75-18 0-24.85 30.81-6.86 42.56 0z" class="animable" style="transform-origin:392.1px 351.735px"/><g class="animable" opacity=".7" style="transform-origin:392.1px 351.735px"><path fill="#fff" d="m413.38 339.31c11.75 6.86 11.75 18 0 24.85s-30.81 6.86-42.56 0-11.75-18 0-24.85 30.81-6.86 42.56 0z" class="animable" style="transform-origin:392.1px 351.735px"/></g><path fill="#38a169" d="m407.73 342.61c8.63 5 8.63 13.21 0 18.25s-22.63 5-31.26 0-8.63-13.21 0-18.25 22.63-5.04 31.26 0z" class="animable" style="transform-origin:392.1px 351.727px"/><g class="animable" opacity=".3" style="transform-origin:392.1px 351.727px"><path d="m407.73 342.61c8.63 5 8.63 13.21 0 18.25s-22.63 5-31.26 0-8.63-13.21 0-18.25 22.63-5.04 31.26 0z" class="animable" style="transform-origin:392.1px 351.727px"/></g><path fill="#f5f5f5" d="m376.47 351.27c8.63-5 22.63-5 31.26 0a14.36 14.36 0 0 1 5.16 4.79 14.38 14.38 0 0 1-5.16 4.8c-8.63 5-22.63 5-31.26 0a14.5 14.5 0 0 1-5.17-4.8 14.48 14.48 0 0 1 5.17-4.79z" class="animable" style="transform-origin:392.095px 356.065px"/><g class="animable" style="transform-origin:394.539px 323.442px"><path fill="#38a169" d="M387.88,329.28a14.43,14.43,0,0,1-1.31-3.76c-.58-3.14.2-6.73,2.74-8.67,1-.76,2.33-1.33,2.76-2.53a4.14,4.14,0,0,0,0-2.07c-.47-2.68-1.37-5.44-.63-8.05a9,9,0,0,1,5-5.36,27,27,0,0,1,7.27-1.9,11.77,11.77,0,0,0,3.85-1.1c1.44-.81,1.89-2.23,2.78-3.48a24.3,24.3,0,0,1,3.54-3.77c2.62-2.34,5.9-4.27,9.53-4.11,7.58.33,7.36,6.85,5.18,11.79s-2.76,6.55,2,11.7,4.74,11.5-.91,15-9.32,4-7.08,10.86c2,6.11,3.23,11.32-2.41,17.85-3.65,4.22-8.64,7.23-14.88,7A25.12,25.12,0,0,1,398,357c-1.72-.85-.56-2.18-1.14-3.88l-3.74-10.92a81.09,81.09,0,0,0-3-8.62C389.43,332.08,388.59,330.71,387.88,329.28Z" class="animable" style="transform-origin:410.217px 321.582px"/><g class="animable" opacity=".25" style="transform-origin:410.217px 321.582px"><path d="M387.88,329.28a14.43,14.43,0,0,1-1.31-3.76c-.58-3.14.2-6.73,2.74-8.67,1-.76,2.33-1.33,2.76-2.53a4.14,4.14,0,0,0,0-2.07c-.47-2.68-1.37-5.44-.63-8.05a9,9,0,0,1,5-5.36,27,27,0,0,1,7.27-1.9,11.77,11.77,0,0,0,3.85-1.1c1.44-.81,1.89-2.23,2.78-3.48a24.3,24.3,0,0,1,3.54-3.77c2.62-2.34,5.9-4.27,9.53-4.11,7.58.33,7.36,6.85,5.18,11.79s-2.76,6.55,2,11.7,4.74,11.5-.91,15-9.32,4-7.08,10.86c2,6.11,3.23,11.32-2.41,17.85-3.65,4.22-8.64,7.23-14.88,7A25.12,25.12,0,0,1,398,357c-1.72-.85-.56-2.18-1.14-3.88l-3.74-10.92a81.09,81.09,0,0,0-3-8.62C389.43,332.08,388.59,330.71,387.88,329.28Z" class="animable" style="transform-origin:410.217px 321.582px"/></g><path fill="#fff" d="M398.18,357a.53.53,0,0,0,.37-.53c-.32-37.42,20.31-59.76,20.52-60a.58.58,0,0,0,0-.8.56.56,0,0,0-.79,0c-.21.22-21.14,22.87-20.82,60.76a.55.55,0,0,0,.56.56Z" class="animable" style="transform-origin:408.343px 326.253px"/><path fill="#fff" d="M404.18,322.17l.12-.05c6.71-4.23,18.68-7.38,18.8-7.41a.57.57,0,0,0,.4-.69.55.55,0,0,0-.68-.4c-.5.13-12.26,3.22-19.11,7.54a.55.55,0,0,0-.18.77A.55.55,0,0,0,404.18,322.17Z" class="animable" style="transform-origin:413.48px 317.9px"/><path fill="#fff" d="M406.26,317h0a.57.57,0,0,0,.31-.74,43.53,43.53,0,0,0-6.19-10.41.55.55,0,0,0-.79-.06.57.57,0,0,0-.06.79,42.89,42.89,0,0,1,6,10.11A.55.55,0,0,0,406.26,317Z" class="animable" style="transform-origin:403.005px 311.347px"/><path fill="#38a169" d="M392.92,361a31.45,31.45,0,0,1-16.43.6c-9.42-2-15.19-10.84-15.19-10.84s10.2-4.08,16.14-4.48a52.62,52.62,0,0,0-17.85.38s-5.46-2-4.43-11.24c0,0,5.14-3.79,17-2.3,0,0-5.92-4.23-16.31-5.48-.82,0,.29-12,1.28-17.35s3-4.52,7.2-4.06,16.81,3.32,18.4,6.4.05,10.94.05,10.94a18,18,0,0,0,3.46-10.28s4.73,1.73,7.26,4a16.82,16.82,0,0,1,4.52,5.66c-.59,4.21-2.57,10.64-5.35,14.23,0,0,6.26-4.05,7.69-11.49a26,26,0,0,1,5,14.65C405.22,349.75,401,356.74,392.92,361Z" class="animable" style="transform-origin:380.195px 334.151px"/><path d="M392.92,361a31.45,31.45,0,0,1-16.43.6c-9.42-2-15.19-10.84-15.19-10.84s10.2-4.08,16.14-4.48a52.62,52.62,0,0,0-17.85.38s-5.46-2-4.43-11.24c0,0,5.14-3.79,17-2.3,0,0-5.92-4.23-16.31-5.48-.82,0,.29-12,1.28-17.35s3-4.52,7.2-4.06,16.81,3.32,18.4,6.4.05,10.94.05,10.94a18,18,0,0,0,3.46-10.28s4.73,1.73,7.26,4a16.82,16.82,0,0,1,4.52,5.66c-.59,4.21-2.57,10.64-5.35,14.23,0,0,6.26-4.05,7.69-11.49a26,26,0,0,1,5,14.65C405.22,349.75,401,356.74,392.92,361Z" class="animable" opacity=".1" style="transform-origin:380.195px 334.151px"/><path fill="#fff" d="M394.17,360.19a.52.52,0,0,1-.34-.46c-1.43-17.86-21.41-45.75-30.24-51.35a.56.56,0,0,1-.17-.75.55.55,0,0,1,.74-.17c9,5.69,29.29,34,30.73,52.18a.53.53,0,0,1-.49.58A.45.45,0,0,1,394.17,360.19Z" class="animable" style="transform-origin:379.117px 333.803px"/></g></g></g><g class="animable" style="transform-origin:190.499px 283.72px"><g class="animable" style="transform-origin:190.499px 283.72px"><path fill="#ffa8a7" d="m213.49 349c0-0.2-3.21-11.8-3.21-11.8s1.05 1.07 7.75-0.7a38 38 0 0 0 7.29-3.06l1.91 8.48c1.79 3.26 7.71 1.76 14.19 1 1.09-0.13 2.21-0.31 3.33-0.5h0.07c3.5-0.19 7 1.91 3.38 4.9s-9.65 4.11-15.18 5.11c-6.66 1.25-18.34 3.2-19.53-3.43z" class="animable" style="transform-origin:230.004px 343.569px"/><path fill="#263238" d="M260,348a6.79,6.79,0,0,1,.48,3.56c-.12,1.29-3.32,5.67-9,8.36s-12.62,2.86-15.88,3.8-6.26,2.81-10.11,3.75-7.66,1.44-11.52-1.11c-.71-1.09-1.49-3.62-1.27-3.87C213.4,361.83,260,348,260,348Z" class="animable" style="transform-origin:236.601px 358.117px"/><path fill="#38a169" d="m228.25 343.08c2.48 1.71 7.62 0.52 13.17-0.11 5.24-0.6 11.13-2.44 14.69-1.2s6.53 5.42 1.72 10.79c-1.39 1.55-4.33 4.28-6.69 5.13-6 2.14-11.34 2.31-15.18 3.26-5 1.23-7.74 3.45-12.36 4-6 0.7-9.78-0.84-10.82-2.44s-2-14.49 0.57-14.22c0 0 1.08 4.17 10.87 0.12 4.27-1.79 4.2-4.41 4.03-5.33z" class="animable" style="transform-origin:236.023px 353.237px"/><path d="m228.25 343.08c2.48 1.71 7.62 0.52 13.17-0.11 5.24-0.6 11.13-2.44 14.69-1.2s6.53 5.42 1.72 10.79c-1.39 1.55-4.33 4.28-6.69 5.13-6 2.14-11.34 2.31-15.18 3.26-5 1.23-7.74 3.45-12.36 4-6 0.7-9.78-0.84-10.82-2.44s-2-14.49 0.57-14.22c0 0 1.08 4.17 10.87 0.12 4.27-1.79 4.2-4.41 4.03-5.33z" class="animable" opacity=".4" style="transform-origin:236.023px 353.237px"/><path fill="#fafafa" d="m244.85 350s-0.56-5.44-4.58-6.88a2.11 2.11 0 0 0-2.22 0.29s3.73 0.54 5 6.93c0 0 0.19 0.42 1 0.27 0.24-0.06 0.84-0.17 0.8-0.61z" class="animable" style="transform-origin:241.451px 346.785px"/><path fill="#fafafa" d="M234.62,343.82s0-.18.94-.35a1.68,1.68,0,0,1,1.11.12s3,1.3,3.56,7c0,0,0,.68-.93.87a.82.82,0,0,1-1.07-.56S237.61,344.91,234.62,343.82Z" class="animable" style="transform-origin:237.425px 347.467px"/><path fill="#fafafa" d="M231.4,343.94s.17-.34.87-.34c.89,0,1.1.35,1.1.35s2.14,2.19,2.16,6.95c0,0,.09.8-1,.88s-1-.82-1-.82S233.15,344.9,231.4,343.94Z" class="animable" style="transform-origin:233.466px 347.693px"/><path fill="#37474f" d="m209.35 270.2c4.9 14.73 17.9 65.45 17.9 65.45s-8.46 7.6-17.64 4.14l-21.87-63.16z" class="animable" style="transform-origin:207.495px 305.446px"/><path fill="#ffa8a7" d="M247.14,365.4c-1-1.49-4.76-11.8-4.76-11.8s3.92,2.24,10.67.64c3.43-.82,6.64-4.54,6.64-4.54l2.88,9.91c1.7,3.31,7.21,2.22,13.71,1.64,1.09-.1,2.21-.26,3.34-.42h.07c3.5-.1,7,2.08,3.25,5s-9.74,3.88-15.3,4.74C261,371.58,250.89,371,247.14,365.4Z" class="animable" style="transform-origin:263.467px 360.338px"/><path fill="#263238" d="m297.56 365.09a7.31 7.31 0 0 1 0.43 3.84c-0.17 1.38-3.72 6-9.84 8.73s-13.63 2.74-17.16 3.66-6.79 2.86-10.95 3.77-8.26 1.33-12.33-1.49c-0.74-1.2-1.52-3.94-1.26-4.2 0.67-0.69 51.11-14.31 51.11-14.31z" class="animable" style="transform-origin:272.239px 375.432px"/><path fill="#38a169" d="M263.63,358.87a10.44,10.44,0,0,0,1.23.76,3.67,3.67,0,0,0,1.36.28,18.9,18.9,0,0,0,3.28.08c2.74-.13,5.47-.55,8.21-.79,5.63-.5,12-2.32,15.79-.9s7.25,6,1.94,11.61a26,26,0,0,1-7.1,5.39c-6.29,2.63-12.82,2.14-17,3.06-5.4,1.19-8.4,3.5-13.38,3.95-6.45.59-10.47-1.16-11.54-2.91-.6-1,.06-6-.74-9.95-.7-3.38-.52-5.68.7-5.53a6,6,0,0,0,.94,1.2,4.51,4.51,0,0,0,1.43,1.13,11.29,11.29,0,0,0,2.42.81,14.29,14.29,0,0,0,4.49.62,2.18,2.18,0,0,0,1.22-.39,2.57,2.57,0,0,0,.71-1.52c.1-.5.21-1,.31-1.5a2.1,2.1,0,0,1,.28-.77,2,2,0,0,1,.76-.61,6.56,6.56,0,0,0,2.46-1.87,5.78,5.78,0,0,0,.72-2.32.57.57,0,0,1,.16-.38c.18-.14.45,0,.65.11Z" class="animable" style="transform-origin:271.716px 370.098px"/><path d="M263.63,358.87a10.44,10.44,0,0,0,1.23.76,3.67,3.67,0,0,0,1.36.28,18.9,18.9,0,0,0,3.28.08c2.74-.13,5.47-.55,8.21-.79,5.63-.5,12-2.32,15.79-.9s7.25,6,1.94,11.61a26,26,0,0,1-7.1,5.39c-6.29,2.63-12.82,2.14-17,3.06-5.4,1.19-8.4,3.5-13.38,3.95-6.45.59-10.47-1.16-11.54-2.91-.6-1,.06-6-.74-9.95-.7-3.38-.52-5.68.7-5.53a6,6,0,0,0,.94,1.2,4.51,4.51,0,0,0,1.43,1.13,11.29,11.29,0,0,0,2.42.81,14.29,14.29,0,0,0,4.49.62,2.18,2.18,0,0,0,1.22-.39,2.57,2.57,0,0,0,.71-1.52c.1-.5.21-1,.31-1.5a2.1,2.1,0,0,1,.28-.77,2,2,0,0,1,.76-.61,6.56,6.56,0,0,0,2.46-1.87,5.78,5.78,0,0,0,.72-2.32.57.57,0,0,1,.16-.38c.18-.14.45,0,.65.11Z" class="animable" opacity=".4" style="transform-origin:271.716px 370.098px"/><path fill="#fafafa" d="m281.2 366.83s-0.46-5.86-4.74-7.51a2.28 2.28 0 0 0-2.39 0.25s4 0.68 5.14 7.57c0 0 0.2 0.46 1.08 0.32 0.29-0.04 0.94-0.14 0.91-0.63z" class="animable" style="transform-origin:277.636px 363.289px"/><path fill="#fafafa" d="M270.38,359.94s0-.2,1-.36a1.78,1.78,0,0,1,1.18.16s3.19,1.47,3.64,7.6c0,0,0,.73-1,.91a.89.89,0,0,1-1.14-.63S273.57,361.18,270.38,359.94Z" class="animable" style="transform-origin:273.29px 363.918px"/><path fill="#fafafa" d="M266.92,360s.19-.36.95-.34c.95,0,1.16.4,1.16.4s2.24,2.41,2.14,7.51c0,0,.08.87-1.13.93s-1-.91-1-.91S268.78,361.05,266.92,360Z" class="animable" style="transform-origin:269.047px 364.081px"/><path fill="#455a64" d="m243.84 287.59c3.86 11.87 13.72 45.66 18.22 63 0 0-8.09 7.28-18.5 6.64l-25.09-65.06 10-6.18z" class="animable" style="transform-origin:240.265px 321.63px"/><path fill="#455a64" d="m161.23 450a1.63 1.63 0 0 0 1.63-1.63v-104.56a1.63 1.63 0 0 0-3.26 0v104.59a1.63 1.63 0 0 0 1.63 1.6z" class="animable" style="transform-origin:161.23px 396.09px"/><path fill="#455a64" d="M96.52,412a1.62,1.62,0,0,0,1.51-1l32.07-81.18a1.62,1.62,0,1,0-3-1.19L95,409.73a1.63,1.63,0,0,0,.91,2.11A1.61,1.61,0,0,0,96.52,412Z" class="animable" style="transform-origin:112.58px 369.736px"/><path fill="#455a64" d="M100.37,402.21a1.61,1.61,0,0,0,1.18-.51l59.68-63.15,59.57,62.88a1.63,1.63,0,0,0,2.36-2.24l-60.75-64.13a1.64,1.64,0,0,0-1.18-.51h0a1.63,1.63,0,0,0-1.18.51l-60.86,64.4a1.63,1.63,0,0,0,1.18,2.75Z" class="animable" style="transform-origin:161.143px 368.38px"/><path fill="#455a64" d="M225.94,412a1.61,1.61,0,0,0,.6-.12,1.63,1.63,0,0,0,.91-2.11l-32.07-81.17a1.63,1.63,0,1,0-3,1.19l32.08,81.18A1.62,1.62,0,0,0,225.94,412Z" class="animable" style="transform-origin:209.864px 369.676px"/><path fill="#38a169" d="m226.72 307.94c1.17-6.56-4.17-11.68-14.23-18.47a238.45 238.45 0 0 0-29.13-16.37c-8.42-3.86-17-3.5-27.79 2-15 7.69-60 35-60 35s67.32 38 80.27 36.3 45.32-22.76 47.89-30.17 2.99-8.29 2.99-8.29z" class="animable" style="transform-origin:161.225px 308.495px"/><g class="animable" opacity=".4" style="transform-origin:161.225px 308.495px"><path d="m226.72 307.94c1.17-6.56-4.17-11.68-14.23-18.47a238.45 238.45 0 0 0-29.13-16.37c-8.42-3.86-17-3.5-27.79 2-15 7.69-60 35-60 35s67.32 38 80.27 36.3 45.32-22.76 47.89-30.17 2.99-8.29 2.99-8.29z" class="animable" style="transform-origin:161.225px 308.495px"/></g><path fill="#38a169" d="M169.35,338.43c9.66,8.75,19.76,1.22,35.74-9.15,18.09-11.73,21.63-21.34,21.63-21.34s0,7.2-1.35,10.57-4.27,7.2-17.31,16.19-22.49,13.49-31.26,15.16l-6.92-.95" class="animable" style="transform-origin:198.035px 328.9px"/><path d="m205.09 329.28c18.09-11.73 21.63-21.34 21.63-21.34s0 7.2-1.35 10.57-4.27 7.2-17.31 16.19-22.49 13.49-31.26 15.16l-6.92-0.95-0.53-10.48c9.65 8.75 19.76 1.22 35.74-9.15z" class="animable" opacity=".5" style="transform-origin:198.035px 328.9px"/><path fill="#38a169" d="M99,399.22l-5,11.42a1.59,1.59,0,0,0-.06.3,1.34,1.34,0,0,0,0,.21,1.41,1.41,0,0,0,.63.76,3,3,0,0,0,2.68.13,1.18,1.18,0,0,0,.55-.53v0l0-.15,4.6-10.71Z" class="animable" style="transform-origin:98.1679px 405.757px"/><path fill="#38a169" d="M223.73,399.7,228,410.89a1.35,1.35,0,0,1,0,.29v.2a1.31,1.31,0,0,1-.64.7,2.8,2.8,0,0,1-2.58,0,1.15,1.15,0,0,1-.51-.52v0l0-.16-3.93-10.49Z" class="animable" style="transform-origin:224.174px 406.047px"/><path fill="#38a169" d="M159.35,440.3v9.26a1,1,0,0,0,.55.76,2.9,2.9,0,0,0,2.66,0,.93.93,0,0,0,.54-.76V440.3A4,4,0,0,0,159.35,440.3Z" class="animable" style="transform-origin:161.225px 445.238px"/><path fill="#37474f" d="m122.54 268.72c3.83 4.47 38.72-5.57 48-6.83 14.9-2 27-3.51 32.1-1.92s7.21 4.17 8.76 10.23c1.83 7.14 2.77 10.79 2.77 10.79s-24.76 9.5-44.3 11.79-47.33-24.06-47.33-24.06z" class="animable" style="transform-origin:168.355px 276.113px"/><path fill="#455a64" d="m116 275.27c-3.87 14.74-7.34 31.88 1.61 41.26 6 6.32 36.31 22.74 55.85 16.27 19.24-6.37 59.1-36 63.1-38.93s7.63-5 7.25-6.28c-5.37-17.84-13.23-19.24-27.79-16-17.82 3.92-56.92 19.87-56.92 19.87z" class="animable" style="transform-origin:177.905px 302.247px"/><polygon fill="#ffa8a7" points="204.52 180.52 191.08 195.71 169.38 185.41 184.55 164.42" class="animable" style="transform-origin:186.95px 180.065px"/><path fill="#f28f8f" d="m221.19 151.66s5.5 7.94 4.91 8.75-4.48 1.61-4.48 1.61z" class="animable" style="transform-origin:223.667px 156.84px"/><path fill="#263238" d="m221.15 156.91a6.58 6.58 0 1 1 6.58-6.58 6.59 6.59 0 0 1-6.58 6.58zm0-11.95a5.37 5.37 0 1 0 5.37 5.37 5.38 5.38 0 0 0-5.37-5.33z" class="animable" style="transform-origin:221.15px 150.33px"/><path fill="#ffa8a7" d="m205.92 129.68c10.81 2 14 6.68 15.43 23.75 1.46 17.83-0.23 23.49-2.52 25.94-1.55 1.66-10.34 2.16-14.81 1-5.59-1.41-18.25-5.57-24.33-14.42-7.16-10.41-9.31-24.69-2-30.73 10.2-8.47 23.83-6.36 28.23-5.54z" class="animable" style="transform-origin:197.524px 154.919px"/><path fill="#f28f8f" d="M204.52,180.52c4.65,1,11.73.41,13.83-.79a16,16,0,0,1-7.83-.29,25.61,25.61,0,0,1-7.17-3.16Z" class="animable" style="transform-origin:210.85px 178.654px"/><path fill="#263238" d="m223.35 136.67c-3 2.08-6.7 2.94-10.32 3.51 0.28 2.89-0.63 5.75-1.53 8.52-0.62 1.91-2.87 7.92-5.32 4.62-1.77-2.38-3.37-4.55-6.76-4-5.58 1-6.17 8.11-2.54 12.37s6.88 2.52 6.88 2.52 0.51 7.69-3.55 13.13c0 0-6.05 3.72-14.55 0.92-5.36-1.77-13.1-8.53-15.95-13.81-7.85-14.52-7.89-28.44 1.63-32.72 0.88-7 6.27-10.2 12.46-11.77 8.59-2.18 17.51 3.21 25.81-0.35 1.75-0.75 3.36-1.81 5.15-2.46a3.56 3.56 0 0 1 3.09 0 3.76 3.76 0 0 1 1.32 2.36 6.62 6.62 0 0 1-0.33 5 15 15 0 0 1 3.91-1.44 4.9 4.9 0 0 1 3.94 0.89 5.07 5.07 0 0 1 1.58 3.44c0.31 3.67-1.92 7.18-4.92 9.27z" class="animable" style="transform-origin:196.148px 148.051px"/><path fill="#263238" d="m171.19 134.12-6.52-3.65a3.74 3.74 0 1 1 6.52 3.65z" class="animable" style="transform-origin:168.212px 131.263px"/><rect width="21.26" height="1.03" x="205.97" y="150.88" fill="#263238" class="animable" style="transform-origin:216.6px 151.395px;transform:rotate(-10.57deg)"/><path fill="#ffa8a7" d="M249.86,189.4c-.56-.94-1.81-1.13-2.85-1.49-1.92-.67-3.42-2.2-5.27-3a10.4,10.4,0,0,0-6.66-.45,16.88,16.88,0,0,0-2.22.71,27.94,27.94,0,0,0-4,2c-5.3,3.13-9.28,10.22-14.49,13.47-1.94,1.21-3.75,2.31-5.54,3.41L221.3,215.1a74.46,74.46,0,0,1,6.14-4.67c3.06-1.82,6.15-1.86,9.59-2.36a47.58,47.58,0,0,0,7-1.75,3.09,3.09,0,0,0,2.07-1.35,2.08,2.08,0,0,0-1.34-2.56,18,18,0,0,0-3.63-.5c-.9-.14-3.3.39-3.83-.51-.28-.48.07-1.06.41-1.49,2.16-2.69,4.89-5.57,8.34-6.38a7.24,7.24,0,0,0,3-1.21A2.39,2.39,0,0,0,249.86,189.4Z" class="animable" style="transform-origin:229.447px 199.606px"/><path fill="#38a169" d="M175.47,177c-13.21-7.21-25.24-2.58-29.57,6.69-3.93,8.39-12.17,40.85-12.17,40.85C137.69,232,175.47,177,175.47,177Z" class="animable" style="transform-origin:154.6px 199.352px"/><path fill="#38a169" d="m173.49 179.6 2-2.61c-14.92-7.08-28.27 2.22-40 20.52-12.68 19.72-19.33 48-19.39 77.91 0 0 2.53 13.43 19.49 20.14 18 7.13 43.11 4.11 50.94-14.55 0 0 0.16-18.63 5.82-27.81 3.67-5.94 12.22-19.13 18.58-28.6 5.54-8.24 9.85-27-1.72-33.85a98.25 98.25 0 0 0-9.41-4.8c-10.58 3.48-27.67-2.17-26.31-6.35z" class="animable" style="transform-origin:166.311px 236.861px"/><path fill="#fff" d="m173.53 179.67 1.94-2.68c-14.92-7.08-28.27 2.22-40 20.52-12.68 19.72-19.33 48-19.39 77.91 0 0 2.53 13.43 19.49 20.14 18 7.13 43.11 4.11 50.94-14.55 0 0 0.16-18.63 5.82-27.81 3.67-5.94 12.22-19.13 18.58-28.6 5.54-8.24 9.85-27-1.72-33.85a98.25 98.25 0 0 0-9.41-4.8c-10.56 3.48-27.61-2.1-26.25-6.28z" class="animable" opacity=".75" style="transform-origin:166.291px 236.861px"/><path fill="#38a169" d="M215.7,212.65a30.2,30.2,0,0,0,.46-10.86h0A58,58,0,0,1,204.9,219c-6.07,6.39-13.56,11.37-19.19,18.15-6,7.18-10.25,15.87-15.25,23.71-2,3.15-4.74,9.22-8.46,9.47-4.54.29-8.88-5.24-11.35-9.06-4-6.08-7.34-13.69-12.25-19-4.29-4.67-10.93-10.65-16.77-7.94h0c-.44,1.55-.85,3.12-1.24,4.7s-.75,3.22-1.09,4.83c0,.06,0,.13,0,.19-.33,1.62-.64,3.25-.93,4.88a2,2,0,0,1,0,.26q-.42,2.43-.75,4.86a157.64,157.64,0,0,0-1.49,21.41s2.53,13.43,19.49,20.14c18,7.13,43.11,4.11,50.94-14.55,0,0,.16-18.63,5.82-27.81.57-.92,1.27-2,2-3.27h0l.13-.21c.65-1,1.35-2.13,2.11-3.31,0-.07.09-.14.14-.21a.41.41,0,0,1,0-.09c1.62-2.53,3.44-5.33,5.32-8.22l.85-1.31c1.82-2.78,3.67-5.59,5.43-8.24l0,0c.59-.89,1.17-1.76,1.75-2.61.24-.37.49-.73.72-1.09h0c.2-.29.4-.61.59-.93l.18-.3.42-.74.18-.34.45-.88a2.4,2.4,0,0,1,.11-.23c.19-.39.37-.79.55-1.2l0-.05,0-.07c.16-.38.32-.76.47-1.14,0-.1.07-.19.1-.28.14-.37.28-.74.41-1.11l0-.09,0-.13c.24-.69.46-1.41.66-2.13v0c.2-.73.38-1.47.54-2.21v-.09Z" class="animable" opacity=".1" style="transform-origin:166.29px 250.469px"/><path fill="#ffa8a7" d="M284.89,230.8a27.57,27.57,0,0,1-3.1,3.2c-4.56,4.13-9.89,6.12-16.09,10.14-5,3.25-12.73,8-19.24,12.05a97.27,97.27,0,0,1-21,9.68c-6,1.78-9.43,1.85-13-7.83-1.75-4.75-3.14-9.63-4.66-14.46q-3.37-10.79-6.64-21.61s-8-19.83,10-29.79c7.83,4.48,10.81,6.29,13.27,15.67,2.94,11.23,7.7,33.39,7.7,33.39a156.74,156.74,0,0,0,18.59-7.92c2.28-1.13,5.09-1.92,6.72-3.95a30.18,30.18,0,0,0,2.86-4.46c.77-1.38,1.32-2.88,2.17-4.2a37.21,37.21,0,0,1,5.91-6.51,2.43,2.43,0,0,1,1.43-.85,1.66,1.66,0,0,1,1.45.88c.66,1.16.05,2.29-.29,3.47-.39,1.35-.78,2.7-1.16,4A35.25,35.25,0,0,0,281.28,211a5.87,5.87,0,0,1,.9-1.14,1.74,1.74,0,0,1,1.34-.49c1.2.15,2.39,2.09,2.45,3.2a18.23,18.23,0,0,0,.09,3.39c.27,1,1,1.9,1.31,2.92a17,17,0,0,1,.68,3.24,11.1,11.1,0,0,1-1.82,6.79A16,16,0,0,1,284.89,230.8Z" class="animable" style="transform-origin:243.729px 229.487px"/><path fill="#38a169" d="m210.08 191.35c6.85 2.77 11.79 5.9 14.91 16.36s6.52 27.29 6.52 27.29 0.06 3.51-8.26 8.42a20.48 20.48 0 0 1-16.11 2.17l-6.28-20.2s-11.14-27.06 9.22-34.04z" class="animable" style="transform-origin:214.664px 218.853px"/><path fill="#38a169" d="m169.88 348.91c-5.5-0.28-9.81-4.32-22.89-9.77-24.16-10.07-42.28-18.14-49.19-30.78s-11.79-49.18-10.06-65a20.35 20.35 0 0 1 1.18-5.24l-1.7-0.25 4.4-3.75c4.52-3.68 11.86-0.4 17.4 2.62 15.82 8.6 28.19 17 38 47.17 7.35 22.71 12.2 43.43 22.36 54.51" class="animable" style="transform-origin:128.55px 290.699px"/><path d="m88.92 238.12-1.7-0.25 4.4-3.75c4.52-3.68 11.86-0.4 17.4 2.62 15.82 8.6 28.19 17 38 47.17 7.35 22.71 12.2 43.43 22.36 54.51l0.53 10.48c-5.5-0.28-9.81-4.32-22.89-9.77-24.19-10.06-42.31-18.13-49.22-30.77s-11.79-49.18-10.06-65a20.78 20.78 0 0 1 1.18-5.24z" class="animable" opacity=".3" style="transform-origin:128.565px 290.694px"/><path fill="#38a169" d="m104.44 240.64c15.81 8.6 28.18 17 38 47.17s15.13 56.88 34.4 62.05c0 0-8.71 3.47-35.41-7.83-8.5-3.59-18.81-10.14-25.58-13.94-13.27-7.45-21.32-13.55-22.59-15.84-7-12.59-11.79-49.18-10.07-65s13.32-10.93 21.25-6.61z" class="animable" style="transform-origin:129.839px 293.37px"/></g></g><g class="animable" style="transform-origin:191.115px 65.8431px"><g class="animable" style="transform-origin:191.115px 65.8431px"><path fill="#38a169" d="M193.34,106.69,189,98.48l3.51-10.15V82.12l-10.75,6.21v6.21l4.62,8a.62.62,0,0,0,.32.28h0Z" class="animable" style="transform-origin:187.55px 94.405px"/><path d="M193.34,106.69,189,98.48l3.51-10.15V82.12l-10.75,6.21v6.21l4.62,8a.62.62,0,0,0,.32.28h0Z" class="animable" opacity=".2" style="transform-origin:187.55px 94.405px"/><path fill="#38a169" d="M219,32.75a7.14,7.14,0,0,0-3.23-5.59l-2.62-1.51a7.12,7.12,0,0,0-6.45,0L166.45,48.94a7.13,7.13,0,0,0-3.22,5.59V98.84a7.13,7.13,0,0,0,3.22,5.58l2.63,1.52a7.12,7.12,0,0,0,6.45,0l12.95-7.48,4.62,8a.68.68,0,0,0,1.24-.12l4.88-14.08,16.58-9.6A7.14,7.14,0,0,0,219,77.06Z" class="animable" style="transform-origin:191.115px 65.8431px"/><path d="M163.23,98.84a7.13,7.13,0,0,0,3.22,5.58l2.63,1.52a7.21,7.21,0,0,0,5.9.26c-1.52.57-2.68-.28-2.68-2.12V59.77a6.64,6.64,0,0,1,.95-3.18l-9.08-5.24a6.62,6.62,0,0,0-.94,3.18Z" class="animable" opacity=".2" style="transform-origin:169.105px 79.0294px"/><path fill="#fff" d="m218.92 31.83c-0.37-1.37-1.62-1.8-3.11-0.95l-40.28 23.3a6.37 6.37 0 0 0-2.27 2.41l-9.08-5.24a6.58 6.58 0 0 1 2.27-2.4l40.27-23.3a7.12 7.12 0 0 1 6.45 0l2.64 1.52a7.08 7.08 0 0 1 3.11 4.66z" class="animable" opacity=".5" style="transform-origin:191.55px 40.7339px"/><g fill="#fff" class="animable" style="transform-origin:195.814px 69.765px"><path d="M178.23,77.16a2.36,2.36,0,0,1,.16-.92,7,7,0,0,1,.47-.86l8.76-14.15a.66.66,0,0,1,.14-.17l.1-.07a.24.24,0,0,1,.32,0,.58.58,0,0,1,.14.43v5.46a2.34,2.34,0,0,1-.26,1.14,7.16,7.16,0,0,1-.44.75l-4.52,6.88,4.52,2.08a1.92,1.92,0,0,1,.44.21c.17.11.26.39.26.83v3.88a1.3,1.3,0,0,1-.14.58.83.83,0,0,1-.32.4l-.1,0a.23.23,0,0,1-.14,0l-8.76-4a1.18,1.18,0,0,1-.47-.32,1.17,1.17,0,0,1-.16-.73Z" class="animable" style="transform-origin:183.273px 72.2849px"/><path d="M197.31,55.3a5.6,5.6,0,0,1,.33-.88,1.59,1.59,0,0,1,.64-.69L201.21,52a.26.26,0,0,1,.34,0,.61.61,0,0,1,.14.44,1.47,1.47,0,0,1,0,.33l-7.4,31.54a4.25,4.25,0,0,1-.31.85,1.59,1.59,0,0,1-.65.71l-2.87,1.66a.26.26,0,0,1-.34,0,.56.56,0,0,1-.14-.44,1.33,1.33,0,0,1,0-.32Z" class="animable" style="transform-origin:195.835px 69.765px"/><path d="M213.4,60.4a2.3,2.3,0,0,1-.16.92,7,7,0,0,1-.47.86L204,76.34a1.31,1.31,0,0,1-.14.16l-.1.08a.25.25,0,0,1-.33,0,.55.55,0,0,1-.13-.43V70.67a2.24,2.24,0,0,1,.25-1.12c.17-.3.32-.54.45-.73l3.83-5.92L204,61.44a1.6,1.6,0,0,1-.45-.23c-.17-.12-.25-.4-.25-.85V54.9a1.33,1.33,0,0,1,.13-.58.93.93,0,0,1,.33-.39l.1,0H204l8.76,4a.87.87,0,0,1,.63,1Z" class="animable" style="transform-origin:208.35px 65.2861px"/></g></g></g><g class="animable" style="transform-origin:73.555px 124.085px"><g class="animable" style="transform-origin:73.555px 61.6px"><g class="animable" style="transform-origin:73.555px 61.6px"><g class="animable" style="transform-origin:73.555px 61.6px"><g class="animable" style="transform-origin:73.555px 61.6px"><path fill="#263238" d="M96.5,27.2,42.61,58.25a2.94,2.94,0,0,0-1.34,2.31V90.65A2.92,2.92,0,0,0,42.61,93l5.32,3a3,3,0,0,0,2.68,0l53.89-31a3,3,0,0,0,1.34-2.32V32.52a2.9,2.9,0,0,0-1.34-2.3l-5.32-3A3,3,0,0,0,96.5,27.2Z" class="animable" style="transform-origin:73.555px 61.605px"/><path fill="#455a64" d="M105.82,32.28c-.1-.68-.65-.92-1.32-.54L50.62,62.79a2.77,2.77,0,0,0-.95,1l-8-4.59a2.63,2.63,0,0,1,.92-1l53.89-31a3,3,0,0,1,2.68,0l5.32,3A3,3,0,0,1,105.82,32.28Z" class="animable" style="transform-origin:73.745px 45.3371px"/><path fill="#37474f" d="m104.5 31.75-53.89 31a3 3 0 0 0-1.33 2.32v30.12c0 0.85 0.6 1.2 1.33 0.77l53.89-31a3 3 0 0 0 1.34-2.32v-30.12c0-0.85-0.6-1.2-1.34-0.77z" class="animable" style="transform-origin:77.56px 63.855px"/></g></g></g><path fill="#f0f0f0" d="M62.6,70.5c0,.24,0,.56,0,1s0,.83,0,1.26,0,.86,0,1.27,0,.73,0,1A5.86,5.86,0,0,0,62.75,76a1.7,1.7,0,0,0,.38.76,1,1,0,0,0,.65.3,1.86,1.86,0,0,0,1-.32,3.79,3.79,0,0,0,1-.77,4.52,4.52,0,0,0,1-1.76c.08-.3.15-.56.19-.8a3.45,3.45,0,0,1,.19-.71.9.9,0,0,1,.4-.4L69.75,71a.21.21,0,0,1,.27,0,.49.49,0,0,1,.11.35,10.35,10.35,0,0,1-.43,2.79,12.7,12.7,0,0,1-1.13,2.72,13.44,13.44,0,0,1-1.7,2.37A8.72,8.72,0,0,1,64.76,81a4.47,4.47,0,0,1-2.21.71,2.53,2.53,0,0,1-1.66-.59,3.72,3.72,0,0,1-1.06-1.68,9.48,9.48,0,0,1-.42-2.53q0-1.07,0-2.31t0-2.4a13.78,13.78,0,0,1,.41-3,14.74,14.74,0,0,1,1.06-2.9,12.28,12.28,0,0,1,1.66-2.51,8.62,8.62,0,0,1,2.22-1.85,4.69,4.69,0,0,1,2.11-.7,2.84,2.84,0,0,1,1.7.41,3,3,0,0,1,1.13,1.41,5.85,5.85,0,0,1,.43,2.29,1.2,1.2,0,0,1-.11.48.71.71,0,0,1-.27.33l-2.25,1.3c-.2.11-.33.13-.4.05a1.13,1.13,0,0,1-.19-.48,3.56,3.56,0,0,0-.19-.58,1.07,1.07,0,0,0-.37-.46,1.08,1.08,0,0,0-.62-.16,2.16,2.16,0,0,0-1,.35,3.54,3.54,0,0,0-1,.81,4.79,4.79,0,0,0-.65,1.06,5.41,5.41,0,0,0-.38,1.2A8.71,8.71,0,0,0,62.6,70.5Z" class="animable" style="transform-origin:64.7708px 71.471px"/><path fill="#f0f0f0" d="M77.24,54.73a4.57,4.57,0,0,1,2-.67,2.83,2.83,0,0,1,1.59.34,2.57,2.57,0,0,1,1.05,1.09A3.52,3.52,0,0,1,82.3,57a1.2,1.2,0,0,1-.11.48.69.69,0,0,1-.25.31l-2.26,1.31a.61.61,0,0,1-.39.11.67.67,0,0,1-.3-.14l-.16-.17a.77.77,0,0,0-.32-.2,1.2,1.2,0,0,0-.52,0,2.06,2.06,0,0,0-.75.29,5.39,5.39,0,0,0-.63.43,3.74,3.74,0,0,0-.53.52,2.52,2.52,0,0,0-.38.63,1.86,1.86,0,0,0-.15.75.83.83,0,0,0,.17.57.74.74,0,0,0,.55.17,4.33,4.33,0,0,0,1-.16l1.58-.41a5.17,5.17,0,0,1,1.65-.21,1.94,1.94,0,0,1,1.18.45,2.41,2.41,0,0,1,.71,1.18,7.43,7.43,0,0,1,.23,2,9,9,0,0,1-.39,2.64A11.32,11.32,0,0,1,81.14,70a10.86,10.86,0,0,1-1.69,2.12,10.39,10.39,0,0,1-2.13,1.63,5.16,5.16,0,0,1-2.13.75,2.79,2.79,0,0,1-1.66-.3,2.54,2.54,0,0,1-1.09-1.13A3.85,3.85,0,0,1,72,71.34a1.07,1.07,0,0,1,.12-.48.65.65,0,0,1,.25-.32l2.25-1.3a.7.7,0,0,1,.38-.12.54.54,0,0,1,.27.12,2.39,2.39,0,0,1,.21.22,1.2,1.2,0,0,0,.37.28,1.14,1.14,0,0,0,.58.1,2,2,0,0,0,.87-.32,6.46,6.46,0,0,0,1.53-1.18,2.14,2.14,0,0,0,.61-1.46.57.57,0,0,0-.23-.53,1.17,1.17,0,0,0-.67-.1,6.55,6.55,0,0,0-1.14.22c-.47.13-1,.27-1.64.42a2.48,2.48,0,0,1-2.59-.45,4.7,4.7,0,0,1-.82-3.17,9.14,9.14,0,0,1,.33-2.37,11.14,11.14,0,0,1,1-2.39,10.37,10.37,0,0,1,1.54-2.14A8.55,8.55,0,0,1,77.24,54.73Z" class="animable" style="transform-origin:77.3109px 64.2869px"/><path fill="#f0f0f0" d="M89.7,47.54a4.56,4.56,0,0,1,2-.68,3,3,0,0,1,1.59.34,2.69,2.69,0,0,1,1,1.09,3.56,3.56,0,0,1,.4,1.55,1.07,1.07,0,0,1-.12.48.62.62,0,0,1-.25.31l-2.25,1.3a.63.63,0,0,1-.39.12.62.62,0,0,1-.3-.14l-.16-.17a.84.84,0,0,0-.32-.2,1.06,1.06,0,0,0-.52,0,2,2,0,0,0-.75.29,5.39,5.39,0,0,0-.63.43,3.8,3.8,0,0,0-.54.52,2.48,2.48,0,0,0-.37.63,1.86,1.86,0,0,0-.15.75.78.78,0,0,0,.16.56.73.73,0,0,0,.55.18,4.32,4.32,0,0,0,1-.16l1.58-.41A5.17,5.17,0,0,1,93,54.07a2,2,0,0,1,1.18.44,2.45,2.45,0,0,1,.71,1.19,7.43,7.43,0,0,1,.23,2,8.76,8.76,0,0,1-.4,2.64,10.44,10.44,0,0,1-1.11,2.46,11,11,0,0,1-1.68,2.12,10.76,10.76,0,0,1-2.13,1.63,5.16,5.16,0,0,1-2.13.75A3,3,0,0,1,86,67a2.59,2.59,0,0,1-1.09-1.13,3.74,3.74,0,0,1-.42-1.75,1,1,0,0,1,.12-.47.65.65,0,0,1,.24-.32l2.26-1.3a.85.85,0,0,1,.38-.13.54.54,0,0,1,.27.12,2.88,2.88,0,0,1,.21.23,1.08,1.08,0,0,0,.37.27,1,1,0,0,0,.58.1,2,2,0,0,0,.87-.31,6.49,6.49,0,0,0,1.53-1.19,2.1,2.1,0,0,0,.61-1.45.57.57,0,0,0-.23-.53,1.09,1.09,0,0,0-.67-.1,5.72,5.72,0,0,0-1.14.22q-.7.19-1.65.42a2.51,2.51,0,0,1-2.59-.45,4.78,4.78,0,0,1-.81-3.17,9.14,9.14,0,0,1,.33-2.37,11.14,11.14,0,0,1,1-2.39,10.71,10.71,0,0,1,1.54-2.15A8.51,8.51,0,0,1,89.7,47.54Z" class="animable" style="transform-origin:89.8058px 57.0858px"/></g><g class="animable" style="transform-origin:73.555px 124.065px"><g class="animable" style="transform-origin:73.555px 124.065px"><g class="animable" style="transform-origin:73.555px 124.065px"><g class="animable" style="transform-origin:73.555px 124.065px"><path fill="#263238" d="M96.5,89.72l-53.89,31a3,3,0,0,0-1.34,2.32v30.08a2.92,2.92,0,0,0,1.34,2.3l5.32,3a3,3,0,0,0,2.68,0l53.89-31a3,3,0,0,0,1.34-2.32V95a2.92,2.92,0,0,0-1.34-2.3l-5.32-3A3,3,0,0,0,96.5,89.72Z" class="animable" style="transform-origin:73.555px 124.065px"/><path fill="#455a64" d="M105.82,94.79c-.1-.67-.65-.91-1.32-.53l-53.88,31a2.77,2.77,0,0,0-.95,1l-8-4.59a2.63,2.63,0,0,1,.92-.95l53.89-31a3,3,0,0,1,2.68,0l5.32,3A2.92,2.92,0,0,1,105.82,94.79Z" class="animable" style="transform-origin:73.745px 107.832px"/><path fill="#37474f" d="m104.5 94.26-53.89 31a3 3 0 0 0-1.33 2.32v30.12c0 0.85 0.6 1.2 1.33 0.77l53.89-31a3 3 0 0 0 1.34-2.32v-30.15c0-0.82-0.6-1.17-1.34-0.74z" class="animable" style="transform-origin:77.56px 126.365px"/></g></g></g><path fill="#f0f0f0" d="M62.85,125.82a.25.25,0,0,1,.33,0,.58.58,0,0,1,.14.43v17.11a1.37,1.37,0,0,1-.14.58.8.8,0,0,1-.33.4l-2.25,1.3a.24.24,0,0,1-.33,0,.57.57,0,0,1-.14-.42v-6.49l-3.82,2.2v6.49a1.4,1.4,0,0,1-.13.59,1,1,0,0,1-.33.4l-2.25,1.3a.27.27,0,0,1-.33,0,.58.58,0,0,1-.14-.44V132.15a1.42,1.42,0,0,1,.14-.59.9.9,0,0,1,.33-.4l2.25-1.3a.26.26,0,0,1,.33,0,.56.56,0,0,1,.13.42v6.38l3.82-2.2V128.1a1.41,1.41,0,0,1,.14-.58.85.85,0,0,1,.33-.4Z" class="animable" style="transform-origin:58.2246px 137.762px"/><path fill="#f0f0f0" d="M75.43,118.56a.24.24,0,0,1,.33,0,.57.57,0,0,1,.14.42v2.81a1.34,1.34,0,0,1-.14.58.88.88,0,0,1-.33.41l-3,1.74v13.59a1.4,1.4,0,0,1-.13.59,1.05,1.05,0,0,1-.33.4l-2.25,1.3a.27.27,0,0,1-.33,0,.58.58,0,0,1-.14-.43V126.38l-3,1.75a.26.26,0,0,1-.33,0,.58.58,0,0,1-.13-.43v-2.8a1.4,1.4,0,0,1,.13-.59.91.91,0,0,1,.33-.4Z" class="animable" style="transform-origin:70.8443px 129.475px"/><path fill="#f0f0f0" d="M83.34,127.86a1.13,1.13,0,0,1-.24-.3l-1.61-3.44v8.77a1.37,1.37,0,0,1-.14.58.8.8,0,0,1-.33.4l-2.25,1.3a.24.24,0,0,1-.33,0,.57.57,0,0,1-.14-.42V117.61a1.37,1.37,0,0,1,.14-.58.85.85,0,0,1,.33-.4l2-1.15c.22-.14.4-.14.51,0a1.71,1.71,0,0,1,.23.3l2.78,5.72,2.79-8.94a5.88,5.88,0,0,1,.22-.56,1.3,1.3,0,0,1,.52-.59l2-1.15a.25.25,0,0,1,.32,0,.58.58,0,0,1,.14.43v17.11a1.42,1.42,0,0,1-.14.59,1,1,0,0,1-.32.4l-2.26,1.3a.26.26,0,0,1-.33,0,.54.54,0,0,1-.13-.42v-8.77l-1.62,5.31a5.67,5.67,0,0,1-.23.57,1,1,0,0,1-.41.46l-1.1.63C83.57,128,83.44,128,83.34,127.86Z" class="animable" style="transform-origin:84.2902px 122.719px"/><path fill="#f0f0f0" d="M102,117.53a.25.25,0,0,1,.33,0,.56.56,0,0,1,.14.42v2.81a1.37,1.37,0,0,1-.14.58.8.8,0,0,1-.33.4l-8,4.6a.25.25,0,0,1-.33,0,.57.57,0,0,1-.14-.42V108.81a1.37,1.37,0,0,1,.14-.58.8.8,0,0,1,.33-.4l2.25-1.3a.24.24,0,0,1,.33,0,.57.57,0,0,1,.13.42v13.59Z" class="animable" style="transform-origin:98.0002px 116.433px"/></g><g class="animable" style="transform-origin:73.555px 186.575px"><g class="animable" style="transform-origin:73.555px 186.575px"><g class="animable" style="transform-origin:73.555px 186.575px"><g class="animable" style="transform-origin:73.555px 186.575px"><path fill="#263238" d="m96.5 152.23-53.89 31.05a2.94 2.94 0 0 0-1.34 2.31v30.08a2.89 2.89 0 0 0 1.34 2.3l5.32 3a3 3 0 0 0 2.68 0l53.89-31.05a2.94 2.94 0 0 0 1.34-2.31v-30.06a2.92 2.92 0 0 0-1.34-2.31l-5.32-3a3 3 0 0 0-2.68-0.01z" class="animable" style="transform-origin:73.555px 186.602px"/><path fill="#455a64" d="M105.82,157.3c-.1-.67-.65-.91-1.32-.53l-53.88,31a2.7,2.7,0,0,0-.95,1l-8-4.59a2.66,2.66,0,0,1,.92-1l53.89-31a3,3,0,0,1,2.68,0l5.32,3A2.94,2.94,0,0,1,105.82,157.3Z" class="animable" style="transform-origin:73.745px 170.317px"/><path fill="#37474f" d="m104.5 156.77-53.89 31a3 3 0 0 0-1.33 2.31v30.08c0 0.86 0.6 1.2 1.33 0.78l53.89-31.05a2.94 2.94 0 0 0 1.34-2.31v-30.03c0-0.86-0.6-1.2-1.34-0.78z" class="animable" style="transform-origin:77.56px 188.855px"/></g></g></g><path fill="#f0f0f0" d="M63.64,194.92c0,.24,0,.56,0,1s0,.83,0,1.26,0,.86,0,1.27,0,.73,0,1a6.49,6.49,0,0,0,.16,1.08,1.7,1.7,0,0,0,.38.76,1,1,0,0,0,.65.3,1.86,1.86,0,0,0,1-.32,4,4,0,0,0,1-.76,5.44,5.44,0,0,0,.62-.88,4.53,4.53,0,0,0,.37-.89,8.22,8.22,0,0,0,.19-.8,3.45,3.45,0,0,1,.19-.71,1,1,0,0,1,.4-.4l2.25-1.3a.21.21,0,0,1,.27,0,.49.49,0,0,1,.11.35,10.35,10.35,0,0,1-.43,2.79,12.24,12.24,0,0,1-1.14,2.72,12.9,12.9,0,0,1-1.69,2.37,8.49,8.49,0,0,1-2.11,1.73,4.37,4.37,0,0,1-2.21.71,2.53,2.53,0,0,1-1.66-.59,3.72,3.72,0,0,1-1.06-1.68,9.41,9.41,0,0,1-.42-2.53q0-1.07,0-2.31t0-2.4a13.78,13.78,0,0,1,.41-3,14.74,14.74,0,0,1,1.06-2.9,12.28,12.28,0,0,1,1.66-2.51,8.82,8.82,0,0,1,2.22-1.85,4.69,4.69,0,0,1,2.11-.7,2.86,2.86,0,0,1,1.69.41,3,3,0,0,1,1.14,1.41,5.86,5.86,0,0,1,.43,2.3,1.19,1.19,0,0,1-.11.47.71.71,0,0,1-.27.33l-2.25,1.3c-.2.11-.33.13-.4.06a1.25,1.25,0,0,1-.19-.49,3.56,3.56,0,0,0-.19-.58,1.13,1.13,0,0,0-.37-.46,1.1,1.1,0,0,0-.62-.16,2.16,2.16,0,0,0-1,.35,3.54,3.54,0,0,0-1,.81,5,5,0,0,0-.65,1.06,5.41,5.41,0,0,0-.38,1.2A10.42,10.42,0,0,0,63.64,194.92Z" class="animable" style="transform-origin:65.8708px 195.962px"/><path fill="#f0f0f0" d="M79.44,191.39v4.37a1.42,1.42,0,0,1-.14.59,1,1,0,0,1-.32.4L76.81,198a.27.27,0,0,1-.33,0,.58.58,0,0,1-.14-.43v-4.37l-2.66,1.54a.25.25,0,0,1-.33,0,.58.58,0,0,1-.14-.43V191.6a1.34,1.34,0,0,1,.14-.58.88.88,0,0,1,.33-.41l2.66-1.54V184.7a1.37,1.37,0,0,1,.14-.58.85.85,0,0,1,.33-.4L79,182.47a.24.24,0,0,1,.32,0,.57.57,0,0,1,.14.42v4.38l2.65-1.53a.24.24,0,0,1,.33,0,.57.57,0,0,1,.14.42v2.68a1.37,1.37,0,0,1-.14.58.8.8,0,0,1-.33.4Z" class="animable" style="transform-origin:77.8948px 190.233px"/><path fill="#f0f0f0" d="M90.85,184.81v4.37a1.41,1.41,0,0,1-.14.58.85.85,0,0,1-.33.4l-2.16,1.25a.25.25,0,0,1-.33,0,.57.57,0,0,1-.14-.42v-4.38l-2.67,1.54a.23.23,0,0,1-.32,0,.57.57,0,0,1-.14-.42V185a1.37,1.37,0,0,1,.14-.58.84.84,0,0,1,.32-.4l2.67-1.54v-4.37a1.42,1.42,0,0,1,.14-.59.9.9,0,0,1,.33-.4l2.16-1.25a.27.27,0,0,1,.33,0,.58.58,0,0,1,.14.43v4.37l2.65-1.53a.26.26,0,0,1,.33,0,.58.58,0,0,1,.13.43v2.67a1.33,1.33,0,0,1-.13.58.86.86,0,0,1-.33.4Z" class="animable" style="transform-origin:89.2907px 183.643px"/></g></g></svg>